<svg xmlns="http://www.w3.org/2000/svg" xmlns:xlink="http://www.w3.org/1999/xlink" viewBox="0 0 399.579 119.998"><defs><style>.a{fill:url(#a);}.b{fill:url(#d);}.c,.d{stroke:none;}.d{fill:rgba(255,255,255,0.15);}.e{filter:url(#e);}.f{filter:url(#b);}</style><radialGradient id="a" cx="0.5" cy="0.224" r="2.177" gradientTransform="translate(0.385 0.173) scale(0.23)" gradientUnits="objectBoundingBox"><stop offset="0" stop-color="#373c43"/><stop offset="1" stop-color="#131821"/></radialGradient><filter id="b" x="0" y="0" width="399.579" height="100.998" filterUnits="userSpaceOnUse"><feOffset dy="2" input="SourceAlpha"/><feGaussianBlur stdDeviation="2" result="c"/><feFlood flood-opacity="0.659"/><feComposite operator="in" in2="c"/><feComposite in="SourceGraphic"/></filter><radialGradient id="d" cx="0.5" cy="-0.291" r="1.425" gradientTransform="matrix(0.35, -0.003, 0.001, 0.993, 0.325, 0)" gradientUnits="objectBoundingBox"><stop offset="0" stop-color="#464a53"/><stop offset="1" stop-color="#232832"/></radialGradient><filter id="e" x="40.994" y="1" width="317.988" height="118.998" filterUnits="userSpaceOnUse"><feOffset dy="3" input="SourceAlpha"/><feGaussianBlur stdDeviation="2" result="f"/><feFlood flood-opacity="0.659"/><feComposite operator="in" in2="f"/><feComposite in="SourceGraphic"/></filter></defs><g transform="translate(-853.003 -89)"><g class="f" transform="matrix(1, 0, 0, 1, 853, 89)"><g class="a" transform="translate(-4778 4988)"><path class="c" d="M4841.871-4908.368l1-.106L4784-4984h387.579l-58.953,75.631h.013L4977.275-4895Z"/><path class="d" d="M 4977.275390625 -4897.01171875 L 5111.57275390625 -4910.27197265625 L 5167.4833984375 -4982 L 4788.09423828125 -4982 L 4844.09375 -4910.158203125 L 4977.275390625 -4897.01171875 M 4977.275390625 -4895.001953125 L 4841.87109375 -4908.36767578125 L 4842.87060546875 -4908.47412109375 L 4783.99951171875 -4984 L 5171.578125 -4984 L 5112.625 -4908.369140625 L 5112.63818359375 -4908.36767578125 L 4977.275390625 -4895.001953125 Z"/></g></g><g class="e" transform="matrix(1, 0, 0, 1, 853, 89)"><g class="b" transform="translate(-4737.01 4988)"><path class="c" d="M4834.961-4892.28l.742-.123L4784-4984h305.988l-51.77,91.719h.009L4936.612-4877Z"/><path class="d" d="M 4936.61181640625 -4879.02490234375 L 5036.9541015625 -4894.111328125 L 5086.5625 -4982.00048828125 L 4787.42578125 -4982.00048828125 L 4837.10986328125 -4893.97998046875 L 4936.61181640625 -4879.02490234375 M 4936.61181640625 -4877.00244140625 L 4834.96142578125 -4892.2802734375 L 4835.70361328125 -4892.40283203125 L 4784 -4984.00048828125 L 5089.98779296875 -4984.00048828125 L 5038.2177734375 -4892.28173828125 L 5038.2265625 -4892.2802734375 L 4936.61181640625 -4877.00244140625 Z"/></g></g></g></svg>