<svg xmlns="http://www.w3.org/2000/svg" viewBox="0 0 19.08 17.15"><defs><style>.cls-1,.cls-2{fill:#fff;}.cls-1{opacity:0.5;}</style></defs><title>Ресурс 2</title><g id="Слой_2" data-name="Слой 2"><g id="Слой_1-2" data-name="Слой 1"><path class="cls-1" d="M15.7,15.83A8.75,8.75,0,0,1,12.78,17a10.4,10.4,0,0,1-7.31-1.45,13,13,0,0,1-3.31-2.66A7.1,7.1,0,0,1,.09,9.46a7.13,7.13,0,0,1,1-4.61c1.11-2.27,1.56-2.72,2-3,.15-.09.77.27.92.2a7.14,7.14,0,0,1-.3-.89h0c0-.72.61-.81,1.92-1A16.69,16.69,0,0,1,10.17.12a11.75,11.75,0,0,1,4.62,1.36,8,8,0,0,1,3.08,2.66,8.15,8.15,0,0,1,1.21,4.64,8.29,8.29,0,0,1-1.79,5.68A7.09,7.09,0,0,1,15.7,15.83ZM4.05,2.87A6.7,6.7,0,0,0,2.33,5.44,5.89,5.89,0,0,0,1.42,9.2a5.84,5.84,0,0,0,1.75,2.74,11.79,11.79,0,0,0,3,2.39,9.1,9.1,0,0,0,6.38,1.31,6.62,6.62,0,0,0,3.76-2.06,7,7,0,0,0,1.47-4.79,6.86,6.86,0,0,0-1-3.91,6.72,6.72,0,0,0-2.6-2.22,11.82,11.82,0,0,0-4-1.65,14.72,14.72,0,0,0-2,0,1.26,1.26,0,0,1-.92,1A9.23,9.23,0,0,0,5,2.46a5.8,5.8,0,0,0-1,.39Z"/><path class="cls-2" d="M10.74,9.08a1.4,1.4,0,0,1-.47.24A1.21,1.21,0,0,1,8.7,8.46L7.9,4.9a1.41,1.41,0,0,1,1-1.61,1.21,1.21,0,0,1,1.56.86l.8,3.56A1.35,1.35,0,0,1,10.74,9.08Z"/><path class="cls-2" d="M11.79,13.19a1.36,1.36,0,0,1-.44.35.94.94,0,0,1-1.4-.46l-.31-.93a1.38,1.38,0,0,1,.74-1.56,1,1,0,0,1,1.4.47l.3.92A1.27,1.27,0,0,1,11.79,13.19Z"/></g></g></svg>