<?xml version="1.0"?>
<svg xmlns="http://www.w3.org/2000/svg" xmlns:xlink="http://www.w3.org/1999/xlink" version="1.1" viewBox="0 0 252 252" width="30px" height="30px"><g transform="translate(-11.34,-11.34) scale(1.09,1.09)"><g fill="none" fill-rule="nonzero" stroke="none" stroke-width="1" stroke-linecap="butt" stroke-linejoin="miter" stroke-miterlimit="10" stroke-dasharray="" stroke-dashoffset="0" font-family="none" font-weight="none" font-size="none" text-anchor="none" style="mix-blend-mode: normal"><path d="M0,252v-252h252v252z" fill="none"/><g><g id="surface1"><path d="M10.5,52.5h231v147h-231z" fill="#3f51b5"/><path d="M10.5,74.62793l109.24512,66.77344l16.42676,-26.86524l-101.47266,-62.03613h-24.19922z" fill="#ffffff"/><path d="M241.5,52.5h-18.94922l-101.47266,62.01563l16.40625,26.88574l104.01563,-63.57422z" fill="#ffffff"/><path d="M137.48438,106.41504l-16.40625,26.88574l108.30176,66.19922h12.12012v-29.51074z" fill="#ffffff"/><path d="M10.5,173.20899v26.29101h17.37012l108.30176,-66.19922l-16.40625,-26.88574z" fill="#ffffff"/><path d="M10.5,105h231v42h-231z" fill="#ffffff"/><path d="M105,52.5h42v147h-42z" fill="#ffffff"/><path d="M90.39844,105l-79.89844,-48.8291v12.30469l59.75977,36.52441z" fill="#e53935"/><path d="M232.62012,52.5l-85.90723,52.5h20.13867l74.64844,-45.60937v-6.89062z" fill="#e53935"/><path d="M173.68066,147l67.81934,41.44629v-12.30469l-47.68066,-29.1416z" fill="#e53935"/><path d="M83.56934,147l-73.06934,44.66602v7.83398h7.30078l85.90723,-52.5z" fill="#e53935"/><path d="M10.5,115.5h231v21h-231z" fill="#e53935"/><path d="M115.5,52.5h21v147h-21z" fill="#e53935"/></g></g></g></g></svg>
