<svg xmlns="http://www.w3.org/2000/svg" width="34" height="34" viewBox="0 0 34 34">
  <metadata><?xpacket begin="﻿" id="W5M0MpCehiHzreSzNTczkc9d"?>
<x:xmpmeta xmlns:x="adobe:ns:meta/" x:xmptk="Adobe XMP Core 5.6-c142 79.160924, 2017/07/13-01:06:39        ">
   <rdf:RDF xmlns:rdf="http://www.w3.org/1999/02/22-rdf-syntax-ns#">
      <rdf:Description rdf:about=""/>
   </rdf:RDF>
</x:xmpmeta>
                                                                                                    
                                                                                                    
                                                                                                    
                                                                                                    
                                                                                                    
                                                                                                    
                                                                                                    
                                                                                                    
                                                                                                    
                                                                                                    
                                                                                                    
                                                                                                    
                                                                                                    
                                                                                                    
                                                                                                    
                                                                                                    
                                                                                                    
                                                                                                    
                                                                                                    
                                                                                                    
                           
<?xpacket end="w"?></metadata>
<defs>
    <style>
      .cls-1 {
        fill: #050b16;
        fill-rule: evenodd;
      }
    </style>
  </defs>
  <path id="_3_копия" data-name="3 копия" class="cls-1" d="M326.709,871.763a9.02,9.02,0,0,1-1.875.221c-1.9.028-3.8,0.01-5.695,0.01-2.081,0-4.163.015-6.244-.015a1.956,1.956,0,0,1-.989-0.339,0.8,0.8,0,0,1-.242-0.973,0.927,0.927,0,0,1,.824-0.683c0.215-.019.432-0.02,0.649-0.02,3.9,0,7.793.006,11.69,0a5.032,5.032,0,0,0,4.962-3.948,4.758,4.758,0,0,0-2.815-5.137,5.356,5.356,0,0,0-2.178-.452c-2.281.009-4.563-.006-6.844-0.016a5.15,5.15,0,0,1-.745-0.048,1.09,1.09,0,0,1-.955-0.752,1.045,1.045,0,0,1,.329-1.109q1.111-1.083,2.231-2.157c0.142-.137.281-0.277,0.432-0.4a1.1,1.1,0,0,1,1.532,0,1.056,1.056,0,0,1-.041,1.491c-0.168.18-.356,0.341-0.524,0.52a1.162,1.162,0,0,0-.14.246,0.908,0.908,0,0,0,.3.122c0.616,0.015,1.232.006,1.848,0.019,1.2,0.024,2.4-.015,3.591.1a6.95,6.95,0,0,1,6.162,6.079A6.853,6.853,0,0,1,326.709,871.763Zm0.752-17.752a5.83,5.83,0,0,1-.648.018c-3.863,0-7.726-.006-11.59,0a5.131,5.131,0,0,0-4.853,3.27,4.642,4.642,0,0,0,2.653,5.8,6.326,6.326,0,0,0,2.122.44c1.813,0.065,3.63.028,5.445,0.036,0.732,0,1.463.008,2.193,0.03a1.042,1.042,0,0,1,.974.65,0.922,0.922,0,0,1-.2,1.083c-0.919.914-1.845,1.822-2.8,2.706a1.067,1.067,0,0,1-1.454.019,1.052,1.052,0,0,1-.124-1.379c0.1-.147.241-0.267,0.357-0.4,0.142-.169.279-0.344,0.417-0.517a5.378,5.378,0,0,0-.709-0.1c-1.4-.013-2.8,0-4.2-0.019a7.158,7.158,0,0,1-6.562-4.311,6.784,6.784,0,0,1,5.233-9.213,9.269,9.269,0,0,1,1.489-.12c1.9-.013,3.8,0,5.695,0,2.082,0,4.163,0,6.245,0a1.055,1.055,0,0,1,1.2,1.016A0.958,0.958,0,0,1,327.461,854.011Z" transform="translate(-303 -845)"/>
</svg>
