<svg xmlns="http://www.w3.org/2000/svg" width="34" height="34" viewBox="0 0 34 34">
  <metadata><?xpacket begin="﻿" id="W5M0MpCehiHzreSzNTczkc9d"?>
<x:xmpmeta xmlns:x="adobe:ns:meta/" x:xmptk="Adobe XMP Core 5.6-c142 79.160924, 2017/07/13-01:06:39        ">
   <rdf:RDF xmlns:rdf="http://www.w3.org/1999/02/22-rdf-syntax-ns#">
      <rdf:Description rdf:about=""/>
   </rdf:RDF>
</x:xmpmeta>
                                                                                                    
                                                                                                    
                                                                                                    
                                                                                                    
                                                                                                    
                                                                                                    
                                                                                                    
                                                                                                    
                                                                                                    
                                                                                                    
                                                                                                    
                                                                                                    
                                                                                                    
                                                                                                    
                                                                                                    
                                                                                                    
                                                                                                    
                                                                                                    
                                                                                                    
                                                                                                    
                           
<?xpacket end="w"?></metadata>
<defs>
    <style>
      .cls-1 {
        fill: #fff;
        fill-rule: evenodd;
      }
    </style>
  </defs>
  <path id="_6_копия_2" data-name="6 копия 2" class="cls-1" d="M347.007,1091.6l3.884,3.81c0,2.05,1.472,3.5,4.417,4.37l3.99,3.86a3.135,3.135,0,0,1-2.713,1.04c-2.128,0-3.264-.78-3.4-2.35h-2.5a4.047,4.047,0,0,0,1.277,2.82,6,6,0,0,0,2.926,1.45v2.4h3.406v-2.4a5.935,5.935,0,0,0,2.766-1.25l2.5,2.5,1.437-1.4-16.548-16.25Zm12.4,4.07h2.5a4.34,4.34,0,0,0-.985-2.66,4.742,4.742,0,0,0-2.633-1.56V1089h-3.406v2.4a9.565,9.565,0,0,0-1.7.62l1.649,1.62a4.483,4.483,0,0,1,1.756-.32c1.809,0,2.749.78,2.82,2.35h0Z" transform="translate(-339 -1082)"/>
</svg>
