<svg xmlns="http://www.w3.org/2000/svg" width="34" height="34" viewBox="0 0 34 34">
  <metadata><?xpacket begin="﻿" id="W5M0MpCehiHzreSzNTczkc9d"?>
<x:xmpmeta xmlns:x="adobe:ns:meta/" x:xmptk="Adobe XMP Core 5.6-c142 79.160924, 2017/07/13-01:06:39        ">
   <rdf:RDF xmlns:rdf="http://www.w3.org/1999/02/22-rdf-syntax-ns#">
      <rdf:Description rdf:about=""/>
   </rdf:RDF>
</x:xmpmeta>
                                                                                                    
                                                                                                    
                                                                                                    
                                                                                                    
                                                                                                    
                                                                                                    
                                                                                                    
                                                                                                    
                                                                                                    
                                                                                                    
                                                                                                    
                                                                                                    
                                                                                                    
                                                                                                    
                                                                                                    
                                                                                                    
                                                                                                    
                                                                                                    
                                                                                                    
                                                                                                    
                           
<?xpacket end="w"?></metadata>
<defs>
    <style>
      .cls-1 {
        fill: #050b16;
        fill-rule: evenodd;
      }
    </style>
  </defs>
  <path id="_1_копия" data-name="1 копия" class="cls-1" d="M325.986,593.5a1.443,1.443,0,1,1,.421,1.078A1.46,1.46,0,0,1,325.986,593.5Zm-3.975,3a1.419,1.419,0,0,1,.444-1.078,1.524,1.524,0,0,1,2.105,0,1.531,1.531,0,0,1,0,2.156,1.524,1.524,0,0,1-2.105,0A1.417,1.417,0,0,1,322.011,596.5Zm-5.987-.516v3h-2.011v-3H311.02v-1.969h2.993v-3h2.011v3h2.993v1.969h-2.993Zm-5-6.984a2.081,2.081,0,0,0-2.011,2.015v7.969A2.083,2.083,0,0,0,311.02,601h17.959a2.085,2.085,0,0,0,2.012-2.016v-7.969A2.083,2.083,0,0,0,328.979,589H311.02Z" transform="translate(-303 -578)"/>
</svg>
