<svg xmlns="http://www.w3.org/2000/svg" width="36" height="36" viewBox="0 0 36 36">
  <metadata><?xpacket begin="﻿" id="W5M0MpCehiHzreSzNTczkc9d"?>
<x:xmpmeta xmlns:x="adobe:ns:meta/" x:xmptk="Adobe XMP Core 5.6-c140 79.160451, 2017/05/06-01:08:21        ">
   <rdf:RDF xmlns:rdf="http://www.w3.org/1999/02/22-rdf-syntax-ns#">
      <rdf:Description rdf:about=""/>
   </rdf:RDF>
</x:xmpmeta>
                                                                                                    
                                                                                                    
                                                                                                    
                                                                                                    
                                                                                                    
                                                                                                    
                                                                                                    
                                                                                                    
                                                                                                    
                                                                                                    
                                                                                                    
                                                                                                    
                                                                                                    
                                                                                                    
                                                                                                    
                                                                                                    
                                                                                                    
                                                                                                    
                                                                                                    
                                                                                                    
                           
<?xpacket end="w"?></metadata>
<defs>
    <style>
      .cls-1 {
        fill: #fff;
        fill-rule: evenodd;
      }
    </style>
  </defs>
  <path id="Прямоугольник_25" data-name="Прямоугольник 25" class="cls-1" d="M26.9,10.923a4.255,4.255,0,0,1,0,6.186,4.567,4.567,0,0,1-3.214,1.27,4.414,4.414,0,0,1-3.214-1.27,4.255,4.255,0,0,1,0-6.186A4.668,4.668,0,0,1,26.9,10.923ZM20.1,14a3.094,3.094,0,0,0,1.041,2.465,3.652,3.652,0,0,0,2.586,1.026,3.563,3.563,0,0,0,2.561-1.026A3.3,3.3,0,0,0,27.354,14a3.726,3.726,0,0,0-1.067-2.489,3.658,3.658,0,0,0-2.561-1,3.231,3.231,0,0,0-2.586,1A3.73,3.73,0,0,0,20.1,14Zm-7.174,7.726-1.547-.59a3.2,3.2,0,0,1,.8-0.1,3.644,3.644,0,0,1,2.614,1.052,3.4,3.4,0,0,1,1.093,2.54,3.484,3.484,0,0,1-1.093,2.542A3.634,3.634,0,0,1,12.178,28.2a3.785,3.785,0,0,1-1.947-.515A3.565,3.565,0,0,1,8.87,26.3c0.2,0.087.5,0.206,0.907,0.36s0.72,0.265.933,0.334a2.9,2.9,0,0,0,2.268,0,2.832,2.832,0,0,0,1.587-1.566,2.63,2.63,0,0,0-.014-2.182A2.791,2.791,0,0,0,12.925,21.729ZM17.979,36h-0.02A18.021,18.021,0,0,1,.376,21.943L6.751,25.1A7.1,7.1,0,0,0,8.977,28.4a5.151,5.151,0,0,0,6.588-.18,4.567,4.567,0,0,0,1.628-3.13L23.7,20.523a6.664,6.664,0,0,0,4.8-1.9A6.169,6.169,0,0,0,30.474,14,6.067,6.067,0,0,0,28.5,9.409a6.949,6.949,0,0,0-9.575-.025,6.2,6.2,0,0,0-2,4.569l-4.241,5.826c-0.213-.017-0.383-0.025-0.507-0.025a4.832,4.832,0,0,0-2.461.943L0,16.576A18.012,18.012,0,0,1,17.959,0h0.02A18,18,0,1,1,17.979,36Z"/>
</svg>
