<svg xmlns="http://www.w3.org/2000/svg" width="16" height="16" viewBox="0 0 16 16">
  <metadata><?xpacket begin="﻿" id="W5M0MpCehiHzreSzNTczkc9d"?>
<x:xmpmeta xmlns:x="adobe:ns:meta/" x:xmptk="Adobe XMP Core 5.6-c142 79.160924, 2017/07/13-01:06:39        ">
   <rdf:RDF xmlns:rdf="http://www.w3.org/1999/02/22-rdf-syntax-ns#">
      <rdf:Description rdf:about=""/>
   </rdf:RDF>
</x:xmpmeta>
                                                                                                    
                                                                                                    
                                                                                                    
                                                                                                    
                                                                                                    
                                                                                                    
                                                                                                    
                                                                                                    
                                                                                                    
                                                                                                    
                                                                                                    
                                                                                                    
                                                                                                    
                                                                                                    
                                                                                                    
                                                                                                    
                                                                                                    
                                                                                                    
                                                                                                    
                                                                                                    
                           
<?xpacket end="w"?></metadata>
<defs>
    <style>
      .cls-1 {
        fill: #e4ae39;
        fill-rule: evenodd;
      }
    </style>
  </defs>
  <path id="_" data-name="" class="cls-1" d="M3609.08,653.275a1.26,1.26,0,0,1-.77.239,1.185,1.185,0,0,1-.93-0.351,1.232,1.232,0,0,1-.32-0.849,1.286,1.286,0,0,1,.27-0.831,0.9,0.9,0,0,1,.74-0.337,1.233,1.233,0,0,1,.93.481,1.619,1.619,0,0,1,.38,1.04A0.694,0.694,0,0,1,3609.08,653.275Zm0.83-2.352a2.345,2.345,0,0,0-1.84-.848,2.179,2.179,0,0,0-1.62.656,2.255,2.255,0,0,0-.65,1.576,2.163,2.163,0,0,0,.61,1.56,2.032,2.032,0,0,0,1.55.64,2.292,2.292,0,0,0,.75-0.128,1.188,1.188,0,0,0,.54-0.336h0.02a2.766,2.766,0,0,1-.59,1.3,1.5,1.5,0,0,1-1.2.528,2.075,2.075,0,0,1-.67-0.112,1.767,1.767,0,0,1-.28-0.1l-0.35,1.008c0.11,0.043.24,0.086,0.38,0.129a3.124,3.124,0,0,0,2.1-.08,2.718,2.718,0,0,0,.88-0.577,3.444,3.444,0,0,0,.61-0.847,4.322,4.322,0,0,0,.37-1.024,5.56,5.56,0,0,0,.11-1.088A3.27,3.27,0,0,0,3609.91,650.923Zm-1.02-4.144v-5.84h-1.09l-1.71,1.648,0.72,0.768,0.56-.512q0.15-.16.24-0.273l0.04-.111h0.04V642.6a0.392,0.392,0,0,0-.02.145v4.032h-1.49V647.8h4.19v-1.024h-1.48Zm8.9-2.656a1.24,1.24,0,0,1-.77.24,1.168,1.168,0,0,1-.93-0.336,1.327,1.327,0,0,1-.04-1.68,0.884,0.884,0,0,1,.73-0.337,1.122,1.122,0,0,1,.93.465,1.606,1.606,0,0,1,.38,1.04A0.7,0.7,0,0,1,3617.79,644.123Zm-0.19,11.792v-5.84h-1.09l-1.71,1.664,0.72,0.768,0.56-.528c0.1-.106.18-0.2,0.24-0.272l0.05-.113h0.03v0.145a0.681,0.681,0,0,0-.02.16v4.016h-1.49v1.024h4.19v-1.024h-1.48Zm1.02-14.128a2.331,2.331,0,0,0-1.84-.848,2.221,2.221,0,0,0-1.61.655,2.142,2.142,0,0,0-.64,1.585,2.1,2.1,0,0,0,2.14,2.175,2.99,2.99,0,0,0,.75-0.127,1.132,1.132,0,0,0,.55-0.321h0.01a2.671,2.671,0,0,1-.59,1.3,1.5,1.5,0,0,1-1.2.528,1.812,1.812,0,0,1-.67-0.128,1.387,1.387,0,0,1-.27-0.1l-0.36,1.008,0.39,0.144a2.789,2.789,0,0,0,.96.144,2.539,2.539,0,0,0,1.13-.224,2.94,2.94,0,0,0,.88-0.592,3.241,3.241,0,0,0,.61-0.848,4.322,4.322,0,0,0,.37-1.024,5.478,5.478,0,0,0,.11-1.073A3.267,3.267,0,0,0,3618.62,641.787Z" transform="translate(-3604.575 -640.938)"/>
</svg>
