<svg xmlns="http://www.w3.org/2000/svg" width="16" height="16" viewBox="0 0 16 16">
  <metadata><?xpacket begin="﻿" id="W5M0MpCehiHzreSzNTczkc9d"?>
<x:xmpmeta xmlns:x="adobe:ns:meta/" x:xmptk="Adobe XMP Core 5.6-c140 79.160451, 2017/05/06-01:08:21        ">
   <rdf:RDF xmlns:rdf="http://www.w3.org/1999/02/22-rdf-syntax-ns#">
      <rdf:Description rdf:about=""/>
   </rdf:RDF>
</x:xmpmeta>
                                                                                                    
                                                                                                    
                                                                                                    
                                                                                                    
                                                                                                    
                                                                                                    
                                                                                                    
                                                                                                    
                                                                                                    
                                                                                                    
                                                                                                    
                                                                                                    
                                                                                                    
                                                                                                    
                                                                                                    
                                                                                                    
                                                                                                    
                                                                                                    
                                                                                                    
                                                                                                    
                           
<?xpacket end="w"?></metadata>
<defs>
    <style>
      .cls-1 {
        fill: #d32ce6;
        fill-rule: evenodd;
      }
    </style>
  </defs>
  <path id="_" data-name="" class="cls-1" d="M7908.5,944.252a2.3,2.3,0,0,0-1.14.358v-2.93a0.814,0.814,0,0,0-.25-0.607,0.838,0.838,0,0,0-.61-0.25h-3.71a2.112,2.112,0,0,0-.79.179,2.017,2.017,0,0,0-.67.429l-3.65,3.643a2.293,2.293,0,0,0-.6,1.464v6a0.813,0.813,0,0,0,.25.607,0.8,0.8,0,0,0,.6.25h4.86v2.572a0.814,0.814,0,0,0,.25.606,0.835,0.835,0,0,0,.61.251h8.57a0.835,0.835,0,0,0,.61-0.251,0.853,0.853,0,0,0,.25-0.606V945.11a0.854,0.854,0,0,0-.25-0.607,0.831,0.831,0,0,0-.61-0.251h-3.72Zm-1.14,4.572h-2.67l2.67-2.67v2.67Zm-5.71-3.429h-2.67l2.67-2.669V945.4Zm1.32,3.786a2.046,2.046,0,0,0-.18.786v2.285h-4.57v-5.714h3.71a0.834,0.834,0,0,0,.61-0.25,0.816,0.816,0,0,0,.25-0.607v-3.714h3.43v3.714l-2.82,2.823A2.023,2.023,0,0,0,7902.97,949.181Zm0.96,6.5v-5.713h3.72a0.8,0.8,0,0,0,.6-0.251,0.813,0.813,0,0,0,.25-0.607V945.4h3.43V955.68h-8Z" transform="translate(-7897.06 -940.812)"/>
</svg>
