<svg xmlns="http://www.w3.org/2000/svg" width="28" height="16" viewBox="0 0 28 16">
  <metadata><?xpacket begin="﻿" id="W5M0MpCehiHzreSzNTczkc9d"?>
<x:xmpmeta xmlns:x="adobe:ns:meta/" x:xmptk="Adobe XMP Core 5.6-c140 79.160451, 2017/05/06-01:08:21        ">
   <rdf:RDF xmlns:rdf="http://www.w3.org/1999/02/22-rdf-syntax-ns#">
      <rdf:Description rdf:about=""/>
   </rdf:RDF>
</x:xmpmeta>
                                                                                                    
                                                                                                    
                                                                                                    
                                                                                                    
                                                                                                    
                                                                                                    
                                                                                                    
                                                                                                    
                                                                                                    
                                                                                                    
                                                                                                    
                                                                                                    
                                                                                                    
                                                                                                    
                                                                                                    
                                                                                                    
                                                                                                    
                                                                                                    
                                                                                                    
                                                                                                    
                           
<?xpacket end="w"?></metadata>
<defs>
    <style>
      .cls-1 {
        fill: #404551;
        fill-rule: evenodd;
      }
    </style>
  </defs>
  <path id="steam_копия_2" data-name="steam копия 2" class="cls-1" d="M911.564,573.094a4.842,4.842,0,0,1-3.487,1.38l-4.727,3.32a3.325,3.325,0,0,1-1.182,2.276,3.742,3.742,0,0,1-4.785.131,5.166,5.166,0,0,1-1.618-2.4l-5.6-2.773a3.184,3.184,0,1,1,1.234-3.19l6.52,2.765a3.522,3.522,0,0,1,1.788-.685c0.09,0,.213.006,0.368,0.019l3.081-4.234a4.5,4.5,0,0,1,1.453-3.319,5.041,5.041,0,0,1,6.955.019A4.405,4.405,0,0,1,913,569.738,4.486,4.486,0,0,1,911.564,573.094Zm-22.486-2.583a2.164,2.164,0,0,0-2.832,1.117,2.125,2.125,0,0,0,1.13,2.8,2.6,2.6,0,0,0,1.552.056c0.117-.021-1.875-1.4-1.78-2.015,0.306-1.957,2.972-1,2.972-1.019A1.432,1.432,0,0,0,889.078,570.511Zm12.527,5.1a2.643,2.643,0,0,0-1.9-.765,2.34,2.34,0,0,0-.582.074l1.124,0.43a2.014,2.014,0,0,1,1.18,1.1,1.89,1.89,0,0,1,.011,1.586,2.047,2.047,0,0,1-1.151,1.136,2.082,2.082,0,0,1-1.649,0c-0.154-.049-0.381-0.129-0.677-0.241s-0.517-.2-0.658-0.261a2.6,2.6,0,0,0,.987,1.007,2.763,2.763,0,0,0,1.415.373,2.638,2.638,0,0,0,1.9-.747,2.52,2.52,0,0,0,.795-1.846A2.465,2.465,0,0,0,901.605,575.613Zm8.8-8.113a3.388,3.388,0,0,0-4.67,0,3.092,3.092,0,0,0,0,4.494,3.212,3.212,0,0,0,2.334.923,3.317,3.317,0,0,0,2.336-.923A3.094,3.094,0,0,0,910.4,567.5Zm-2.306,4.774a2.662,2.662,0,0,1-1.881-.745,2.251,2.251,0,0,1-.754-1.791,2.716,2.716,0,0,1,.754-1.81,2.357,2.357,0,0,1,1.881-.726,2.65,2.65,0,0,1,1.86.726,2.713,2.713,0,0,1,.774,1.81,2.4,2.4,0,0,1-.774,1.791A2.594,2.594,0,0,1,908.1,572.274Z" transform="translate(-885 -565)"/>
</svg>
