<svg xmlns="http://www.w3.org/2000/svg" width="16" height="16" viewBox="0 0 16 16">
  <metadata><?xpacket begin="﻿" id="W5M0MpCehiHzreSzNTczkc9d"?>
<x:xmpmeta xmlns:x="adobe:ns:meta/" x:xmptk="Adobe XMP Core 5.6-c142 79.160924, 2017/07/13-01:06:39        ">
   <rdf:RDF xmlns:rdf="http://www.w3.org/1999/02/22-rdf-syntax-ns#">
      <rdf:Description rdf:about=""/>
   </rdf:RDF>
</x:xmpmeta>
                                                                                                    
                                                                                                    
                                                                                                    
                                                                                                    
                                                                                                    
                                                                                                    
                                                                                                    
                                                                                                    
                                                                                                    
                                                                                                    
                                                                                                    
                                                                                                    
                                                                                                    
                                                                                                    
                                                                                                    
                                                                                                    
                                                                                                    
                                                                                                    
                                                                                                    
                                                                                                    
                           
<?xpacket end="w"?></metadata>
<defs>
    <style>
      .cls-1 {
        fill: #fff;
        fill-rule: evenodd;
      }
    </style>
  </defs>
  <path id="копировать_белый" data-name="копировать белый" class="cls-1" d="M9577.5,748.252a2.3,2.3,0,0,0-1.14.358v-2.929a0.854,0.854,0,0,0-.85-0.857h-3.72a2.023,2.023,0,0,0-.78.178,1.969,1.969,0,0,0-.68.43l-3.65,3.642a2.021,2.021,0,0,0-.42.679,2.042,2.042,0,0,0-.18.786v6a0.854,0.854,0,0,0,.85.857h4.86v2.572a0.814,0.814,0,0,0,.25.607,0.834,0.834,0,0,0,.61.25h8.57a0.834,0.834,0,0,0,.61-0.25,0.854,0.854,0,0,0,.25-0.607V749.11a0.854,0.854,0,0,0-.25-0.607,0.831,0.831,0,0,0-.61-0.251h-3.72Zm-1.14,4.572h-2.67l2.67-2.669v2.669Zm-5.71-3.429h-2.67l2.67-2.669V749.4Zm1.32,3.787a2.042,2.042,0,0,0-.18.785v2.285h-4.57v-5.713h3.71a0.831,0.831,0,0,0,.61-0.251,0.813,0.813,0,0,0,.25-0.607v-3.714h3.43v3.714l-2.82,2.823A2.018,2.018,0,0,0,9571.97,753.182Zm0.96,6.5v-5.714h3.72a0.8,0.8,0,0,0,.6-0.25,0.816,0.816,0,0,0,.25-0.607V749.4h3.43v10.286h-8Z" transform="translate(-9566.06 -744.813)"/>
</svg>
