<svg id="Группа_7" data-name="Группа 7" xmlns="http://www.w3.org/2000/svg" width="16" height="33" viewBox="0 0 16 33">
  <metadata><?xpacket begin="﻿" id="W5M0MpCehiHzreSzNTczkc9d"?>
<x:xmpmeta xmlns:x="adobe:ns:meta/" x:xmptk="Adobe XMP Core 5.6-c140 79.160451, 2017/05/06-01:08:21        ">
   <rdf:RDF xmlns:rdf="http://www.w3.org/1999/02/22-rdf-syntax-ns#">
      <rdf:Description rdf:about=""/>
   </rdf:RDF>
</x:xmpmeta>
                                                                                                    
                                                                                                    
                                                                                                    
                                                                                                    
                                                                                                    
                                                                                                    
                                                                                                    
                                                                                                    
                                                                                                    
                                                                                                    
                                                                                                    
                                                                                                    
                                                                                                    
                                                                                                    
                                                                                                    
                                                                                                    
                                                                                                    
                                                                                                    
                                                                                                    
                                                                                                    
                           
<?xpacket end="w"?></metadata>
<defs>
    <style>
      .cls-1 {
        fill: #e4ae39;
      }

      .cls-1, .cls-2 {
        fill-rule: evenodd;
      }

      .cls-2 {
        fill: #fff;
      }
    </style>
  </defs>
  <path id="Заработать_копия" data-name="Заработать копия" class="cls-1" d="M1648.61,480.672l-4.51,2.644-0.17.09a3.219,3.219,0,0,1-1.88.318l-5.97-.258a0.743,0.743,0,0,1-.63.437l-1.36.09a0.808,0.808,0,0,1-.87-0.736l-0.22-3.022a0.8,0.8,0,0,1,.76-0.845l1.36-.09a0.753,0.753,0,0,1,.69.351,4.943,4.943,0,0,1,3.78-.221,3.628,3.628,0,0,0,.77.116l3.15,0.039a0.748,0.748,0,0,1,.15,1.488l-3.54.338a0.2,0.2,0,0,0,.03.394l0.14-.006a26.08,26.08,0,0,0,4.02-.388,2.417,2.417,0,0,0,.81-0.334c0.04-.024.1-0.06,0.14-0.087a19.061,19.061,0,0,1,2.03-1.186,3.242,3.242,0,0,1,1.12-.407,0.613,0.613,0,0,1,.59.669A0.757,0.757,0,0,1,1648.61,480.672Zm-14.02,1.71a0.448,0.448,0,1,0,.47.448A0.456,0.456,0,0,0,1634.59,482.382Zm10.6-2.044a1.7,1.7,0,0,0-.14.1,2.1,2.1,0,0,0,0-.251,1.593,1.593,0,0,0-.07-0.309,0.02,0.02,0,0,1,.01-0.02c0.47-.258,1.41-0.709,1.91-0.911a0.764,0.764,0,0,1,.74.062,4.566,4.566,0,0,0-.51.226A19.407,19.407,0,0,0,1645.19,480.338Zm0.77-7.572a4.575,4.575,0,0,0-3.45-2.243c0-.014-0.01-0.027-0.01-0.04A2.48,2.48,0,1,1,1645.96,472.766Zm0.45,5.878c-0.37.163-1.08,0.415-1.41,0.6l-0.23.125c-0.02.014-.04,0.031-0.06,0.044a1.518,1.518,0,0,0-.35-0.305c0.31-.166,1.01-0.394,1.32-0.517A0.762,0.762,0,0,1,1646.41,478.644Zm-0.78-3.6a3.6,3.6,0,1,1-3.6-3.606A3.6,3.6,0,0,1,1645.63,475.043Zm-3.78-1.2a0.555,0.555,0,0,1,.2-0.044,1.6,1.6,0,0,1,.77.154c0.12,0.055.16,0.039,0.2-.087s0.08-.269.12-0.4a0.145,0.145,0,0,0-.1-0.186,1.947,1.947,0,0,0-.48-0.142c-0.21-.036-0.21-0.036-0.21-0.255-0.01-.309-0.01-0.309-0.31-0.309h-0.14c-0.14,0-.17.031-0.17,0.176v0.2c-0.01.192-.01,0.192-0.19,0.258a1.034,1.034,0,0,0-.76.958,1.007,1.007,0,0,0,.56.938,5.655,5.655,0,0,0,.7.311,1.431,1.431,0,0,1,.25.149,0.346,0.346,0,0,1-.09.606,0.8,0.8,0,0,1-.44.061,2.007,2.007,0,0,1-.68-0.2c-0.12-.063-0.16-0.046-0.2.09-0.04.116-.07,0.235-0.11,0.354-0.04.159-.03,0.2,0.12,0.269a2.233,2.233,0,0,0,.61.175c0.17,0.027.17,0.033,0.18,0.2v0.233a0.14,0.14,0,0,0,.15.156c0.12,0,.23,0,0.34,0a0.136,0.136,0,0,0,.15-0.15v-0.318a0.164,0.164,0,0,1,.14-0.192,1.143,1.143,0,0,0,.6-0.384,1.08,1.08,0,0,0-.35-1.647,5.469,5.469,0,0,0-.6-0.272,1.334,1.334,0,0,1-.33-0.185A0.288,0.288,0,0,1,1641.85,473.843Z" transform="translate(-1633 -468)"/>
  <path id="Заработать_копия-2" data-name="Заработать копия" class="cls-2" d="M1648.61,497.672l-4.51,2.644-0.17.09a3.219,3.219,0,0,1-1.88.318l-5.97-.258a0.743,0.743,0,0,1-.63.437l-1.36.09a0.808,0.808,0,0,1-.87-0.736l-0.22-3.022a0.8,0.8,0,0,1,.76-0.845l1.36-.09a0.755,0.755,0,0,1,.69.351,4.943,4.943,0,0,1,3.78-.221,3.628,3.628,0,0,0,.77.116l3.15,0.039a0.748,0.748,0,0,1,.15,1.488l-3.54.338a0.2,0.2,0,0,0,.03.394l0.14-.006a26.08,26.08,0,0,0,4.02-.388,2.417,2.417,0,0,0,.81-0.334c0.04-.024.1-0.06,0.14-0.087a19.061,19.061,0,0,1,2.03-1.186,3.242,3.242,0,0,1,1.12-.407,0.614,0.614,0,0,1,.59.669A0.757,0.757,0,0,1,1648.61,497.672Zm-14.02,1.71a0.448,0.448,0,1,0,.47.448A0.456,0.456,0,0,0,1634.59,499.382Zm10.6-2.044a1.487,1.487,0,0,0-.14.1,2.118,2.118,0,0,0,0-.252,1.617,1.617,0,0,0-.07-0.308,0.02,0.02,0,0,1,.01-0.02c0.47-.258,1.41-0.709,1.91-0.911a0.764,0.764,0,0,1,.74.062,4.566,4.566,0,0,0-.51.226A19.407,19.407,0,0,0,1645.19,497.338Zm0.77-7.572a4.575,4.575,0,0,0-3.45-2.243c0-.014-0.01-0.027-0.01-0.04A2.48,2.48,0,1,1,1645.96,489.766Zm0.45,5.878c-0.37.163-1.08,0.414-1.41,0.6l-0.23.125c-0.02.014-.04,0.031-0.06,0.044a1.518,1.518,0,0,0-.35-0.305c0.31-.165,1.01-0.394,1.32-0.517A0.762,0.762,0,0,1,1646.41,495.644Zm-0.78-3.6a3.6,3.6,0,1,1-3.6-3.606A3.6,3.6,0,0,1,1645.63,492.043Zm-3.78-1.2a0.555,0.555,0,0,1,.2-0.044,1.6,1.6,0,0,1,.77.154c0.12,0.055.16,0.039,0.2-.087s0.08-.269.12-0.4a0.145,0.145,0,0,0-.1-0.186,1.947,1.947,0,0,0-.48-0.142c-0.21-.036-0.21-0.036-0.21-0.255-0.01-.309-0.01-0.309-0.31-0.309h-0.14c-0.14,0-.17.031-0.17,0.176v0.2c-0.01.192-.01,0.192-0.19,0.258a1.034,1.034,0,0,0-.76.958,1.007,1.007,0,0,0,.56.938,5.655,5.655,0,0,0,.7.311,1.431,1.431,0,0,1,.25.149,0.346,0.346,0,0,1-.09.606,0.793,0.793,0,0,1-.44.06,1.983,1.983,0,0,1-.68-0.2c-0.12-.063-0.16-0.046-0.2.09-0.04.116-.07,0.235-0.11,0.354-0.04.159-.03,0.2,0.12,0.269a2.233,2.233,0,0,0,.61.175c0.17,0.027.17,0.033,0.18,0.2v0.233a0.14,0.14,0,0,0,.15.156c0.12,0,.23,0,0.34,0a0.136,0.136,0,0,0,.15-0.15v-0.318a0.164,0.164,0,0,1,.14-0.192,1.143,1.143,0,0,0,.6-0.384,1.08,1.08,0,0,0-.35-1.647,5.469,5.469,0,0,0-.6-0.272,1.334,1.334,0,0,1-.33-0.185A0.288,0.288,0,0,1,1641.85,490.843Z" transform="translate(-1633 -468)"/>
</svg>
