<svg xmlns="http://www.w3.org/2000/svg" width="16" height="16" viewBox="0 0 16 16">
  <metadata><?xpacket begin="﻿" id="W5M0MpCehiHzreSzNTczkc9d"?>
<x:xmpmeta xmlns:x="adobe:ns:meta/" x:xmptk="Adobe XMP Core 5.6-c142 79.160924, 2017/07/13-01:06:39        ">
   <rdf:RDF xmlns:rdf="http://www.w3.org/1999/02/22-rdf-syntax-ns#">
      <rdf:Description rdf:about=""/>
   </rdf:RDF>
</x:xmpmeta>
                                                                                                    
                                                                                                    
                                                                                                    
                                                                                                    
                                                                                                    
                                                                                                    
                                                                                                    
                                                                                                    
                                                                                                    
                                                                                                    
                                                                                                    
                                                                                                    
                                                                                                    
                                                                                                    
                                                                                                    
                                                                                                    
                                                                                                    
                                                                                                    
                                                                                                    
                                                                                                    
                           
<?xpacket end="w"?></metadata>
<defs>
    <style>
      .cls-1 {
        fill: #e4ae39;
        fill-rule: evenodd;
      }
    </style>
  </defs>
  <path id="_" data-name="" class="cls-1" d="M3609.08,539.075a0.247,0.247,0,0,0-.09-0.192,0.3,0.3,0,0,0-.2-0.08,0.321,0.321,0,0,0-.21.08l-2.27,2.271a0.268,0.268,0,0,0-.01.409,0.283,0.283,0,0,0,.2.087,0.3,0.3,0,0,0,.21-0.08l2.29-2.288A0.336,0.336,0,0,0,3609.08,539.075Zm1.34,0.367a0.307,0.307,0,0,0-.21-0.079,0.26,0.26,0,0,0-.19.079,0.3,0.3,0,0,0-.08.208v2.865a0.421,0.421,0,0,0,.08.207,0.229,0.229,0,0,0,.19.081,0.272,0.272,0,0,0,.21-0.081,0.293,0.293,0,0,0,.08-0.207V539.65A0.231,0.231,0,0,0,3610.42,539.442Zm-2-2a0.275,0.275,0,0,0-.21-0.08h-2.84a0.275,0.275,0,0,0-.21.08,0.312,0.312,0,0,0,0,.417,0.279,0.279,0,0,0,.21.08h2.84a0.279,0.279,0,0,0,.21-0.08A0.312,0.312,0,0,0,3608.42,537.442Zm10.63-.464-3.01-3.007a2.092,2.092,0,0,0-.5-0.369l-0.16,2.128,2.45,2.465a0.783,0.783,0,0,1,.26.591,0.835,0.835,0,0,1-.26.608l-1.31,1.3a0.837,0.837,0,0,1-.61.24,0.821,0.821,0,0,1-.61-0.24l-2.43-2.447-2.14.159a2.43,2.43,0,0,0,.38.5l2.97,2.992a2.558,2.558,0,0,0,3.64.015l1.31-1.295a2.448,2.448,0,0,0,.77-1.807,2.524,2.524,0,0,0-.75-1.825h0Zm-5.14-5.152-2.98-2.991a2.478,2.478,0,0,0-1.82-.752,2.532,2.532,0,0,0-1.83.735l-1.31,1.313a2.423,2.423,0,0,0-.75,1.8,2.534,2.534,0,0,0,.75,1.833l3,2.991a2.221,2.221,0,0,0,.51.384l0.16-2.143-2.45-2.449a0.837,0.837,0,0,1-.26-0.608,0.784,0.784,0,0,1,.26-0.591l1.31-1.312a0.873,0.873,0,0,1,1.22.015l2.43,2.449,2.13-.161a2.319,2.319,0,0,0-.37-0.512h0Zm5.95,1.056a0.275,0.275,0,0,0-.21-0.08h-2.86a0.4,0.4,0,0,0-.21.08,0.241,0.241,0,0,0-.08.192,0.3,0.3,0,0,0,.08.209,0.275,0.275,0,0,0,.21.08h2.86a0.275,0.275,0,0,0,.21-0.08,0.3,0.3,0,0,0,.08-0.209A0.278,0.278,0,0,0,3619.86,532.882Zm-4.86-4.864a0.307,0.307,0,0,0-.21-0.079,0.274,0.274,0,0,0-.21.079,0.3,0.3,0,0,0-.08.208v2.849a0.294,0.294,0,0,0,.08.207,0.271,0.271,0,0,0,.21.08,0.3,0.3,0,0,0,.21-0.08,0.294,0.294,0,0,0,.08-0.207v-2.849A0.3,0.3,0,0,0,3615,528.018Zm3.79,1.344a0.305,0.305,0,0,0-.29-0.288,0.261,0.261,0,0,0-.19.08l-2.29,2.289a0.334,0.334,0,0,0-.08.207,0.308,0.308,0,0,0,.08.2,0.246,0.246,0,0,0,.19.087,0.312,0.312,0,0,0,.21-0.079l2.29-2.289A0.334,0.334,0,0,0,3618.79,529.362Z" transform="translate(-3604.5 -527.375)"/>
</svg>
