<svg xmlns="http://www.w3.org/2000/svg" width="37" height="32" viewBox="0 0 37 32">
  <metadata><?xpacket begin="﻿" id="W5M0MpCehiHzreSzNTczkc9d"?>
<x:xmpmeta xmlns:x="adobe:ns:meta/" x:xmptk="Adobe XMP Core 5.6-c140 79.160451, 2017/05/06-01:08:21        ">
   <rdf:RDF xmlns:rdf="http://www.w3.org/1999/02/22-rdf-syntax-ns#">
      <rdf:Description rdf:about=""/>
   </rdf:RDF>
</x:xmpmeta>
                                                                                                    
                                                                                                    
                                                                                                    
                                                                                                    
                                                                                                    
                                                                                                    
                                                                                                    
                                                                                                    
                                                                                                    
                                                                                                    
                                                                                                    
                                                                                                    
                                                                                                    
                                                                                                    
                                                                                                    
                                                                                                    
                                                                                                    
                                                                                                    
                                                                                                    
                                                                                                    
                           
<?xpacket end="w"?></metadata>
<defs>
    <style>
      .cls-1 {
        fill: #fff;
        fill-rule: evenodd;
      }
    </style>
  </defs>
  <path id="Фигура_1_копия" data-name="Фигура 1 копия" class="cls-1" d="M14,12l4,5a25.4,25.4,0,0,0,4-8,25.236,25.236,0,0,0,1-6,35.633,35.633,0,0,0-8-2A40.158,40.158,0,0,0,5,1L8,3C3.317,6.588.312,12.206,1,18c1,8.453,9.525,13.754,17,14,9.568,0.314,18.753-7.652,19-17,0.146-5.526-2.836-10.551-7-14a16.284,16.284,0,0,1,2,15,15.777,15.777,0,0,1-7,8l3,3a29.02,29.02,0,0,1-11,1,28.9,28.9,0,0,1-8-2Z"/>
</svg>
