<svg xmlns="http://www.w3.org/2000/svg" xmlns:xlink="http://www.w3.org/1999/xlink" viewBox="0 0 67.89 53.03"><defs><style>.cls-1{fill:none;}.cls-2{clip-path:url(#clip-path);}.cls-3{fill:#fff;}.cls-4{fill:#f79410;}.cls-5{fill:#ff5f00;}.cls-6{fill:#eb001b;}.cls-7{fill:#f79e1b;}</style><clipPath id="clip-path" transform="translate(0 0)"><rect class="cls-1" width="67.89" height="53.03"/></clipPath></defs><title>Ресурс 8</title><g id="Слой_2" data-name="Слой 2"><g id="Layer_1" data-name="Layer 1"><g id="Иллюстрация_1" data-name="Иллюстрация 1"><g class="cls-2"><g class="cls-2"><path class="cls-3" d="M66.51,52.31v.14h.12l.07,0a.05.05,0,0,0,0,0,0,0,0,0,0,0-.05s0,0-.07,0Zm.12-.1a.25.25,0,0,1,.16,0,.17.17,0,0,1,0,.12.13.13,0,0,1,0,.1.17.17,0,0,1-.12.05l.16.2h-.13l-.15-.19h0v.19H66.4v-.52Zm0,.7a.47.47,0,0,0,.17,0,.3.3,0,0,0,.13-.09.71.71,0,0,0,.1-.14.47.47,0,0,0,0-.17.51.51,0,0,0,0-.17.63.63,0,0,0-.23-.23.5.5,0,0,0-.34,0,.71.71,0,0,0-.14.1.3.3,0,0,0-.09.13.51.51,0,0,0,0,.17.47.47,0,0,0,0,.17.39.39,0,0,0,.23.23.47.47,0,0,0,.17,0m0-1a.54.54,0,0,1,.22,0,.55.55,0,0,1,.3.3.49.49,0,0,1,0,.21.54.54,0,0,1,0,.22.66.66,0,0,1-.12.17.57.57,0,0,1-.18.12.51.51,0,0,1-.44,0,.57.57,0,0,1-.18-.12.66.66,0,0,1-.12-.17.54.54,0,0,1,0-.22.5.5,0,0,1,0-.21.55.55,0,0,1,.3-.3.54.54,0,0,1,.22,0m-52-2a1.69,1.69,0,1,1,1.69,1.79,1.68,1.68,0,0,1-1.69-1.79m4.51,0v-2.8H17.91v.68A2.12,2.12,0,0,0,16.15,47a2.94,2.94,0,0,0,0,5.88,2.12,2.12,0,0,0,1.76-.82v.68h1.21Zm41,0a1.69,1.69,0,1,1,1.69,1.79,1.68,1.68,0,0,1-1.69-1.79m4.51,0v-5H63.37v2.92A2.13,2.13,0,0,0,61.61,47a2.94,2.94,0,0,0,0,5.88,2.13,2.13,0,0,0,1.76-.82v.68h1.21ZM34.16,48.08a1.38,1.38,0,0,1,1.41,1.36H32.68a1.44,1.44,0,0,1,1.48-1.36m0-1.09a2.94,2.94,0,0,0,.08,5.88,3.33,3.33,0,0,0,2.28-.79l-.59-.9a2.63,2.63,0,0,1-1.62.59,1.56,1.56,0,0,1-1.67-1.37h4.14c0-.15,0-.31,0-.47A2.68,2.68,0,0,0,34.19,47m14.63,2.94a1.69,1.69,0,1,1,1.69,1.79,1.68,1.68,0,0,1-1.69-1.79m4.51,0v-2.8H52.12v.68A2.13,2.13,0,0,0,50.36,47a2.94,2.94,0,0,0,0,5.88,2.13,2.13,0,0,0,1.76-.82v.68h1.21ZM42,49.93a2.82,2.82,0,0,0,3,2.94,2.89,2.89,0,0,0,2-.67l-.58-1a2.41,2.41,0,0,1-1.46.5,1.79,1.79,0,0,1,0-3.58,2.41,2.41,0,0,1,1.46.5l.58-1A2.89,2.89,0,0,0,45,47a2.82,2.82,0,0,0-3,2.94M57.6,47a1.64,1.64,0,0,0-1.47.82v-.68h-1.2v5.6h1.21V49.59c0-.92.4-1.44,1.19-1.44a2.12,2.12,0,0,1,.76.14l.37-1.15A2.73,2.73,0,0,0,57.6,47m-32.48.59A4.15,4.15,0,0,0,22.84,47c-1.41,0-2.32.68-2.32,1.79,0,.92.68,1.48,1.93,1.65l.57.09c.66.09,1,.26,1,.58s-.45.68-1.27.68a3,3,0,0,1-1.86-.59l-.57,1a4,4,0,0,0,2.41.73c1.61,0,2.55-.76,2.55-1.83s-.74-1.5-2-1.67l-.57-.08c-.53-.07-.95-.18-.95-.55s.4-.66,1.06-.66a3.58,3.58,0,0,1,1.74.48ZM40.75,47a1.65,1.65,0,0,0-1.47.82v-.68h-1.2v5.6h1.21V49.59c0-.92.4-1.44,1.19-1.44a2.08,2.08,0,0,1,.76.14l.37-1.15a2.64,2.64,0,0,0-.86-.15m-10.34.14h-2V45.44H27.2v1.69H26.07v1.11H27.2V50.8c0,1.29.5,2.07,1.94,2.07a2.9,2.9,0,0,0,1.51-.43l-.35-1a2.22,2.22,0,0,1-1.07.32c-.6,0-.8-.38-.8-.94V48.24h2Zm-18.12,5.6V49.22A2.08,2.08,0,0,0,10.1,47a2.16,2.16,0,0,0-2,1A2,2,0,0,0,6.3,47a1.84,1.84,0,0,0-1.63.83v-.69H3.45v5.6H4.68v-3.1A1.3,1.3,0,0,1,6,48.14c.81,0,1.22.53,1.22,1.47v3.12H8.48v-3.1a1.32,1.32,0,0,1,1.36-1.49c.83,0,1.23.53,1.23,1.47v3.12Z" transform="translate(0 0)"/><path class="cls-4" d="M67.25,34.12v-.81H67l-.24.56-.25-.56h-.21v.81h.15v-.61l.23.53h.15l.23-.53v.61Zm-1.34,0v-.67h.27v-.14h-.69v.14h.27v.67Z" transform="translate(0 0)"/><rect class="cls-5" x="24.76" y="4.51" width="18.36" height="33.13"/><path class="cls-6" d="M25.94,21.07A21.09,21.09,0,0,1,34,4.5,21,21,0,0,0,0,21.07,21,21,0,0,0,34,37.64a21.09,21.09,0,0,1-8-16.57" transform="translate(0 0)"/><path class="cls-7" d="M67.89,21.07A21,21,0,0,1,33.94,37.64a21.14,21.14,0,0,0,0-33.14,21,21,0,0,1,34,16.57" transform="translate(0 0)"/></g></g></g></g></g></svg>