<svg xmlns="http://www.w3.org/2000/svg" width="52.997" height="53" viewBox="0 0 46 46.003">
  <metadata><?xpacket begin="﻿" id="W5M0MpCehiHzreSzNTczkc9d"?>
<x:xmpmeta xmlns:x="adobe:ns:meta/" x:xmptk="Adobe XMP Core 5.6-c142 79.160924, 2017/07/13-01:06:39        ">
   <rdf:RDF xmlns:rdf="http://www.w3.org/1999/02/22-rdf-syntax-ns#">
      <rdf:Description rdf:about=""/>
   </rdf:RDF>
</x:xmpmeta>
                                                                                                    
                                                                                                    
                                                                                                    
                                                                                                    
                                                                                                    
                                                                                                    
                                                                                                    
                                                                                                    
                                                                                                    
                                                                                                    
                                                                                                    
                                                                                                    
                                                                                                    
                                                                                                    
                                                                                                    
                                                                                                    
                                                                                                    
                                                                                                    
                                                                                                    
                                                                                                    
                           
<?xpacket end="w"?></metadata>
<defs>
    <style>
      .cls-1 {
        fill: #ffc600;
        fill-rule: evenodd;
      }
    </style>
  </defs>
  <path id="steam_копия" data-name="steam копия" class="cls-1" d="M1316.65,2870.66a7.816,7.816,0,0,1-5.73,2.33l-7.77,5.6a5.645,5.645,0,0,1-1.94,3.84,6.029,6.029,0,0,1-7.86.22,8.691,8.691,0,0,1-2.66-4.05l-9.21-4.68a5.2,5.2,0,0,1-3.17,1.09,5.4,5.4,0,1,1,5.21-6.47l10.71,4.67a5.63,5.63,0,0,1,2.93-1.16c0.15,0,.36.01,0.61,0.03l5.06-7.14a7.7,7.7,0,0,1,2.39-5.6,8.137,8.137,0,0,1,11.43.03,7.557,7.557,0,0,1,2.36,5.63A7.648,7.648,0,0,1,1316.65,2870.66Zm-36.95-4.35a3.515,3.515,0,0,0-4.65,1.88,3.61,3.61,0,0,0,1.85,4.72,4.2,4.2,0,0,0,2.55.1c0.19-.04-3.08-2.36-2.92-3.4,0.5-3.3,4.88-1.68,4.88-1.72C1281.37,2867.11,1280.46,2866.64,1279.7,2866.31Zm20.59,8.6a4.3,4.3,0,0,0-3.13-1.29,3.505,3.505,0,0,0-.95.13l1.85,0.72a3.383,3.383,0,0,1,1.94,1.86,3.269,3.269,0,0,1,.01,2.67,3.428,3.428,0,0,1-1.89,1.92,3.363,3.363,0,0,1-2.71,0c-0.25-.08-0.62-0.22-1.11-0.41s-0.85-.33-1.08-0.44a4.339,4.339,0,0,0,1.62,1.7,4.441,4.441,0,0,0,2.32.63,4.276,4.276,0,0,0,3.13-1.26,4.346,4.346,0,0,0,1.3-3.11A4.221,4.221,0,0,0,1300.29,2874.91Zm14.45-13.68a5.444,5.444,0,0,0-7.67,0,5.289,5.289,0,0,0,0,7.58,5.2,5.2,0,0,0,3.83,1.56,5.406,5.406,0,0,0,3.84-1.56A5.312,5.312,0,0,0,1314.74,2861.23Zm-3.79,8.05a4.3,4.3,0,0,1-3.09-1.26,3.841,3.841,0,0,1-1.24-3.02,4.654,4.654,0,0,1,1.24-3.05,3.825,3.825,0,0,1,3.09-1.23,4.352,4.352,0,0,1,3.06,1.23,4.625,4.625,0,0,1,1.27,3.05,4.08,4.08,0,0,1-1.27,3.02A4.2,4.2,0,0,1,1310.95,2869.28Z" transform="translate(-1273 -2847.499)"/>
</svg>
