<svg xmlns="http://www.w3.org/2000/svg" xmlns:xlink="http://www.w3.org/1999/xlink" width="50" height="43" viewBox="0 0 50 43">
  <metadata><?xpacket begin="﻿" id="W5M0MpCehiHzreSzNTczkc9d"?>
<x:xmpmeta xmlns:x="adobe:ns:meta/" x:xmptk="Adobe XMP Core 5.6-c140 79.160451, 2017/05/06-01:08:21        ">
   <rdf:RDF xmlns:rdf="http://www.w3.org/1999/02/22-rdf-syntax-ns#">
      <rdf:Description rdf:about=""/>
   </rdf:RDF>
</x:xmpmeta>
                                                                                                    
                                                                                                    
                                                                                                    
                                                                                                    
                                                                                                    
                                                                                                    
                                                                                                    
                                                                                                    
                                                                                                    
                                                                                                    
                                                                                                    
                                                                                                    
                                                                                                    
                                                                                                    
                                                                                                    
                                                                                                    
                                                                                                    
                                                                                                    
                                                                                                    
                                                                                                    
                           
<?xpacket end="w"?></metadata>
<defs>
    <style>
      .cls-1 {
        fill: #3f93ae;
        fill-rule: evenodd;
        filter: url(#filter);
      }
    </style>
    <filter id="filter" x="8034" y="1023" width="50" height="43" filterUnits="userSpaceOnUse">
      <feOffset result="offset" dy="4" in="SourceAlpha"/>
      <feGaussianBlur result="blur" stdDeviation="2.828"/>
      <feFlood result="flood" flood-color="#3f93ae" flood-opacity="0.25"/>
      <feComposite result="composite" operator="in" in2="blur"/>
      <feBlend result="blend" in="SourceGraphic"/>
    </filter>
  </defs>
  <path id="tweter" class="cls-1" d="M8072.17,1033.22v0.85a17.229,17.229,0,0,1-.77,5.37,19.337,19.337,0,0,1-2.51,5.2,20.327,20.327,0,0,1-4,4.34,18.524,18.524,0,0,1-5.61,3.02,20.818,20.818,0,0,1-6.98,1.15,20,20,0,0,1-10.74-3.03,11.065,11.065,0,0,0,1.67.11,14.083,14.083,0,0,0,8.65-2.85,6.549,6.549,0,0,1-3.99-1.32,6.857,6.857,0,0,1-2.51-3.36,8.417,8.417,0,0,0,1.31.17,5.921,5.921,0,0,0,1.67-.29,6.762,6.762,0,0,1-4.05-2.28,6.271,6.271,0,0,1-1.67-4.29v-0.05a8.546,8.546,0,0,0,3.34.85,6.243,6.243,0,0,1-3.05-5.59,6.433,6.433,0,0,1,.96-3.37,20.509,20.509,0,0,0,6.39,4.91,20.033,20.033,0,0,0,8.05,2.11,5.66,5.66,0,0,1-.18-1.54,6.491,6.491,0,0,1,2.09-4.74,6.976,6.976,0,0,1,5.01-1.94,6.788,6.788,0,0,1,5.01,2.05,14.605,14.605,0,0,0,4.48-1.59,6.517,6.517,0,0,1-3.11,3.71,14.65,14.65,0,0,0,4-1.09,12.766,12.766,0,0,1-3.46,3.49h0Z" transform="translate(-8034 -1023)"/>
</svg>
