<svg xmlns="http://www.w3.org/2000/svg" width="52.997" height="53" viewBox="0 0 46 46.003">
  <metadata><?xpacket begin="﻿" id="W5M0MpCehiHzreSzNTczkc9d"?>
<x:xmpmeta xmlns:x="adobe:ns:meta/" x:xmptk="Adobe XMP Core 5.6-c142 79.160924, 2017/07/13-01:06:39        ">
   <rdf:RDF xmlns:rdf="http://www.w3.org/1999/02/22-rdf-syntax-ns#">
      <rdf:Description rdf:about=""/>
   </rdf:RDF>
</x:xmpmeta>
                                                                                                    
                                                                                                    
                                                                                                    
                                                                                                    
                                                                                                    
                                                                                                    
                                                                                                    
                                                                                                    
                                                                                                    
                                                                                                    
                                                                                                    
                                                                                                    
                                                                                                    
                                                                                                    
                                                                                                    
                                                                                                    
                                                                                                    
                                                                                                    
                                                                                                    
                                                                                                    
                           
<?xpacket end="w"?></metadata>
<defs>
    <style>
      .cls-1 {
        fill: #fff;
        fill-rule: evenodd;
      }
    </style>
  </defs>
  <path id="steam_копия" data-name="steam копия" class="cls-1" d="M885.649,2870.66a7.816,7.816,0,0,1-5.73,2.33l-7.768,5.6a5.653,5.653,0,0,1-1.943,3.84,6.033,6.033,0,0,1-7.863.22,8.717,8.717,0,0,1-2.658-4.05l-9.209-4.68a5.176,5.176,0,0,1-3.167,1.09,5.4,5.4,0,1,1,5.2-6.47l10.713,4.67a5.646,5.646,0,0,1,2.937-1.16q0.224,0,.605.03l5.063-7.14a7.7,7.7,0,0,1,2.386-5.6,8.137,8.137,0,0,1,11.43.03,7.539,7.539,0,0,1,2.356,5.63A7.64,7.64,0,0,1,885.649,2870.66Zm-36.953-4.35a3.516,3.516,0,0,0-4.649,1.88,3.613,3.613,0,0,0,1.854,4.72,4.2,4.2,0,0,0,2.551.1c0.191-.04-3.08-2.36-2.923-3.4,0.5-3.3,4.881-1.68,4.88-1.72C850.367,2867.11,849.456,2866.64,848.7,2866.31Zm20.59,8.6a4.286,4.286,0,0,0-3.121-1.29,3.489,3.489,0,0,0-.955.13l1.848,0.72a3.386,3.386,0,0,1,1.94,1.86,3.289,3.289,0,0,1,.017,2.67,3.441,3.441,0,0,1-1.894,1.92,3.359,3.359,0,0,1-2.708,0c-0.253-.08-0.625-0.22-1.114-0.41s-0.849-.33-1.081-0.44a4.339,4.339,0,0,0,1.623,1.7,4.432,4.432,0,0,0,2.324.63,4.268,4.268,0,0,0,3.121-1.26,4.326,4.326,0,0,0,1.305-3.11A4.23,4.23,0,0,0,869.286,2874.91Zm14.454-13.68a5.448,5.448,0,0,0-7.673,0,5.307,5.307,0,0,0,0,7.58,5.2,5.2,0,0,0,3.836,1.56,5.409,5.409,0,0,0,3.837-1.56A5.312,5.312,0,0,0,883.74,2861.23Zm-3.79,8.05a4.292,4.292,0,0,1-3.087-1.26,3.829,3.829,0,0,1-1.242-3.02,4.646,4.646,0,0,1,1.242-3.05,3.809,3.809,0,0,1,3.087-1.23,4.326,4.326,0,0,1,3.057,1.23,4.627,4.627,0,0,1,1.273,3.05,4.087,4.087,0,0,1-1.273,3.02A4.2,4.2,0,0,1,879.95,2869.28Z" transform="translate(-842 -2847.499)"/>
</svg>
