<svg xmlns="http://www.w3.org/2000/svg" width="35.03" height="20" viewBox="0 0 34.03 19.429">
  <metadata><?xpacket begin="﻿" id="W5M0MpCehiHzreSzNTczkc9d"?>
<x:xmpmeta xmlns:x="adobe:ns:meta/" x:xmptk="Adobe XMP Core 5.6-c142 79.160924, 2017/07/13-01:06:39        ">
   <rdf:RDF xmlns:rdf="http://www.w3.org/1999/02/22-rdf-syntax-ns#">
      <rdf:Description rdf:about=""/>
   </rdf:RDF>
</x:xmpmeta>
                                                                                                    
                                                                                                    
                                                                                                    
                                                                                                    
                                                                                                    
                                                                                                    
                                                                                                    
                                                                                                    
                                                                                                    
                                                                                                    
                                                                                                    
                                                                                                    
                                                                                                    
                                                                                                    
                                                                                                    
                                                                                                    
                                                                                                    
                                                                                                    
                                                                                                    
                                                                                                    
                           
<?xpacket end="w"?></metadata>
<defs>
    <style>
      .cls-1 {
        fill: #5e98d9;
        fill-rule: evenodd;
      }
    </style>
  </defs>
  <path id="vk_копия_2" data-name="vk копия 2" class="cls-1" d="M1282.86,2943.35a24.6,24.6,0,0,1,2.61-.04l2.07,0.04a1.351,1.351,0,0,1,1.35.84,31.715,31.715,0,0,0,4.02,6.85c0.9,0.81,1.47.69,1.73-.36a17.433,17.433,0,0,0,.16-3.87,2.717,2.717,0,0,0-2.06-3.06c0.33-.83,1.49-1.25,3.46-1.25a14.808,14.808,0,0,1,1.81.05l1.19,0.07c1.63,0,2.44.64,2.44,1.9,0,0.16-.03.55-0.08,1.17s-0.1,1.19-.13,1.73-0.04,1.11-.04,1.73a4.144,4.144,0,0,0,.25,1.53,1.268,1.268,0,0,0,.68.76,2.931,2.931,0,0,0,.84-0.56c0.23-.21.52-0.52,0.89-0.93a6.111,6.111,0,0,0,.72-0.92c0.11-.22.35-0.62,0.72-1.21a6,6,0,0,0,.59-1.09,9.436,9.436,0,0,1,.55-1.21l0.63-1.24a2.037,2.037,0,0,1,.55-0.81,2.563,2.563,0,0,1,1.01-.12h5.11a7.431,7.431,0,0,1,1.1.04,1.264,1.264,0,0,1,.46.36c0.39,0.46.06,1.48-1.01,3.06a31.916,31.916,0,0,1-3.08,3.95q-2.07,2.175-.6,3.51a31.662,31.662,0,0,1,4.39,4.5,1.84,1.84,0,0,1,.34,1.53,0.877,0.877,0,0,1-.93.65l-5.44.24a4.275,4.275,0,0,1-2.79-1.33,12.32,12.32,0,0,1-2.24-2.33,1.354,1.354,0,0,0-1.18-.65,0.983,0.983,0,0,0-1.14.77l-0.17,2.05a1.18,1.18,0,0,1-.46.97,1.81,1.81,0,0,1-.72.32l-0.93.12a23.264,23.264,0,0,1-3.76-.2,6.768,6.768,0,0,1-2.95-1.13c-0.84-.59-1.54-1.11-2.07-1.57a30.865,30.865,0,0,1-2.28-2.3,64.3,64.3,0,0,1-6.03-9.5,8.3,8.3,0,0,1-.81-2.66A2.282,2.282,0,0,1,1282.86,2943.35Z" transform="translate(-1281.63 -2942.131)"/>
</svg>
