<svg xmlns="http://www.w3.org/2000/svg" width="35.032" height="20" viewBox="0 0 34.031 19.429">
  <metadata><?xpacket begin="﻿" id="W5M0MpCehiHzreSzNTczkc9d"?>
<x:xmpmeta xmlns:x="adobe:ns:meta/" x:xmptk="Adobe XMP Core 5.6-c142 79.160924, 2017/07/13-01:06:39        ">
   <rdf:RDF xmlns:rdf="http://www.w3.org/1999/02/22-rdf-syntax-ns#">
      <rdf:Description rdf:about=""/>
   </rdf:RDF>
</x:xmpmeta>
                                                                                                    
                                                                                                    
                                                                                                    
                                                                                                    
                                                                                                    
                                                                                                    
                                                                                                    
                                                                                                    
                                                                                                    
                                                                                                    
                                                                                                    
                                                                                                    
                                                                                                    
                                                                                                    
                                                                                                    
                                                                                                    
                                                                                                    
                                                                                                    
                                                                                                    
                                                                                                    
                           
<?xpacket end="w"?></metadata>
<defs>
    <style>
      .cls-1 {
        fill: #fff;
        fill-rule: evenodd;
      }
    </style>
  </defs>
  <path id="vk_копия_2" data-name="vk копия 2" class="cls-1" d="M851.857,2943.35a24.766,24.766,0,0,1,2.617-.04l2.068,0.04a1.363,1.363,0,0,1,1.352.84,31.608,31.608,0,0,0,4.012,6.85q1.349,1.215,1.73-.36a16.923,16.923,0,0,0,.167-3.87,2.719,2.719,0,0,0-2.066-3.06c0.337-.83,1.49-1.25,3.461-1.25a14.92,14.92,0,0,1,1.816.05l1.181,0.07c1.633,0,2.448.64,2.448,1.9q0,0.24-.083,1.17c-0.059.61-.1,1.19-0.129,1.73s-0.04,1.11-.04,1.73a4,4,0,0,0,.252,1.53,1.258,1.258,0,0,0,.676.76,3.056,3.056,0,0,0,.844-0.56q0.338-.315.887-0.93a5.462,5.462,0,0,0,.718-0.92c0.112-.22.352-0.62,0.718-1.21a5.607,5.607,0,0,0,.59-1.09,9.514,9.514,0,0,1,.549-1.21l0.634-1.24a2.074,2.074,0,0,1,.547-0.81,2.578,2.578,0,0,1,1.013-.12h5.11a7.34,7.34,0,0,1,1.1.04,1.245,1.245,0,0,1,.465.36q0.588,0.69-1.015,3.06a31.445,31.445,0,0,1-3.08,3.95q-2.072,2.175-.592,3.51a32.492,32.492,0,0,1,4.391,4.5,1.855,1.855,0,0,1,.337,1.53,0.875,0.875,0,0,1-.928.65l-5.446.24a4.273,4.273,0,0,1-2.788-1.33,12.205,12.205,0,0,1-2.236-2.33,1.366,1.366,0,0,0-1.183-.65,0.981,0.981,0,0,0-1.138.77l-0.17,2.05a1.178,1.178,0,0,1-.462.97,1.847,1.847,0,0,1-.722.32l-0.926.12a23.232,23.232,0,0,1-3.759-.2,6.741,6.741,0,0,1-2.954-1.13c-0.845-.59-1.536-1.11-2.07-1.57a29.421,29.421,0,0,1-2.278-2.3,64.318,64.318,0,0,1-6.036-9.5,8.236,8.236,0,0,1-.8-2.66A2.231,2.231,0,0,1,851.857,2943.35Z" transform="translate(-850.625 -2942.131)"/>
</svg>
