<svg xmlns="http://www.w3.org/2000/svg" xmlns:xlink="http://www.w3.org/1999/xlink" viewBox="0 0 129.17 47.21"><defs><style>.cls-1{fill:none;}.cls-2{clip-path:url(#clip-path);}.cls-3{fill:#ff8c00;}</style><clipPath id="clip-path" transform="translate(0 0)"><rect class="cls-1" width="129.17" height="47.21"/></clipPath></defs><title>Ресурс 7</title><g id="Слой_2" data-name="Слой 2"><g id="Layer_1" data-name="Layer 1"><g id="Иллюстрация_3" data-name="Иллюстрация 3"><g class="cls-2"><g class="cls-2"><path class="cls-3" d="M85.85,10V32a.6.6,0,0,1-.6.6H80.74a.6.6,0,0,1-.6-.6V10a.6.6,0,0,1,.6-.6h4.51a.6.6,0,0,1,.6.6M121,9.36h-5a.59.59,0,0,0-.57.42l-4,13.05L107,9.77a.61.61,0,0,0-.57-.41H102.9a.59.59,0,0,0-.57.41L97.94,22.83l-4-13a.6.6,0,0,0-.58-.42h-5a.59.59,0,0,0-.57.78l7.41,22.09a.6.6,0,0,0,.57.41h4a.6.6,0,0,0,.57-.41l4.35-12.9L109,32.23a.6.6,0,0,0,.57.41h4a.6.6,0,0,0,.56-.41l7.42-22.09a.56.56,0,0,0-.09-.53.58.58,0,0,0-.48-.25m7.58,0h-4.5a.6.6,0,0,0-.6.6V32a.6.6,0,0,0,.6.6h4.5a.6.6,0,0,0,.6-.6V10a.6.6,0,0,0-.6-.6m-51,22.52a.46.46,0,0,1-.35.76H71.65a.75.75,0,0,1-.58-.28l-.94-1.12a12.23,12.23,0,1,1,3.65-3.66ZM66.58,27,64.16,24a.46.46,0,0,1,.36-.76h5.06A7.22,7.22,0,0,0,70,21a6.45,6.45,0,1,0-12.88,0,6.54,6.54,0,0,0,6.44,6.74A6.35,6.35,0,0,0,66.58,27m-29.11,4.8c.14.92-.15,1.31-.44,1.31s-.72-.38-1.19-1.11a2.27,2.27,0,0,1-.41-2,.67.67,0,0,1,.88-.24c.78.29,1.08,1.48,1.16,2m-4.31,2c.94.79,1.22,1.73.73,2.39a1.54,1.54,0,0,1-1.26.56,2.22,2.22,0,0,1-1.42-.51,2,2,0,0,1-.55-2.63,1.24,1.24,0,0,1,1-.42,2.39,2.39,0,0,1,1.51.61M31.6,41.39c4,0,8.39,1.38,13.22,5.66.49.43,1.13-.1.71-.63-4.75-6-9.14-7.14-13.52-8.11a14.51,14.51,0,0,1-10-7.5c-.38-.66-.55-.54-.58.3a18.33,18.33,0,0,0,.26,3.76c-.22,0-.44,0-.66,0A13.88,13.88,0,1,1,34.87,21a14.41,14.41,0,0,1-.08,1.62,20.44,20.44,0,0,0-4.41-.08c-.53,0-.45.29-.06.36,4.59.83,7.74,3.67,8.46,8.83a.13.13,0,0,0,.24.05A21,21,0,1,0,21,42c3.08,0,6.13-.6,10.61-.6" transform="translate(0 0)"/></g></g></g></g></g></svg>