<svg xmlns="http://www.w3.org/2000/svg" viewBox="0 0 131.41 37.29"><defs><style>.cls-1{fill:#fff;}.cls-2{fill:#957bee;}</style></defs><title>Ресурс 1</title><g id="Слой_2" data-name="Слой 2"><g id="Слой_1-2" data-name="Слой 1"><g id="skinpay-logo-text_for-dark-" data-name="skinpay-logo-text for-dark-"><g id="Group-7"><g id="Логотип"><path class="cls-1" d="M17.27,8.73l-5.44,0L13,7.52a1.15,1.15,0,0,0,0-1.6,1.11,1.11,0,0,0-1.58,0L8.69,8.66a1.16,1.16,0,0,0-.11,1.44A1.12,1.12,0,0,0,9.66,11l7.58.07A4.94,4.94,0,0,1,22.07,16a5,5,0,0,1-1.42,3.51A4.79,4.79,0,0,1,17.18,21H4.94a1.16,1.16,0,0,0,0,2.32H17.18a7.07,7.07,0,0,0,5.09-2.18,7.29,7.29,0,0,0-5-12.39Z"/><path class="cls-1" d="M12.13,16.35l-.77.79a1.13,1.13,0,0,0,0,1.6,1.11,1.11,0,0,0,.79.33,1.19,1.19,0,0,0,.79-.33L15.65,16a1.13,1.13,0,0,0,0-1.6,1.08,1.08,0,0,0-.88-.31l-.08,0L7.1,14A5,5,0,0,1,3.69,5.55,4.83,4.83,0,0,1,7.16,4.06H19.41a1.16,1.16,0,0,0,0-2.32H7.16A7,7,0,0,0,2.08,3.91a7.3,7.3,0,0,0,5,12.4Z"/><g id="Group-5"><path id="skin" class="cls-1" d="M38.32,20c3.79,0,5.86-1.9,5.86-4.38,0-5.61-8.52-3.74-8.52-6.25,0-1,1-1.73,2.63-1.73a5.64,5.64,0,0,1,4.17,1.7l1.29-2.16a8.08,8.08,0,0,0-5.49-2c-3.56,0-5.54,2-5.54,4.29,0,5.41,8.52,3.42,8.52,6.19,0,1.11-.94,1.9-2.78,1.9a7.28,7.28,0,0,1-4.78-2l-1.4,2.22a8.58,8.58,0,0,0,6,2.19Zm22.14-.35-6-7.71,5.87-6.4h-3.8l-6.21,6.8V.15H47.28V19.63h3.06v-3.8l1.95-2,4.32,5.82ZM64.14,3.8a1.9,1.9,0,1,0,0-3.8,1.92,1.92,0,0,0-1.9,1.9,1.92,1.92,0,0,0,1.9,1.9Zm1.55,15.83V5.52H62.62V19.63Zm16.54,0V9.7c0-2.9-1.52-4.53-4.55-4.53a6.65,6.65,0,0,0-5,2.28V5.52H69.65V19.63h3.07V9.78a4.64,4.64,0,0,1,3.62-1.89c1.72,0,2.83.73,2.83,2.92v8.82Z"/><path id="pay" class="cls-2" d="M93.67,20.32c3.66,0,6.26-2.8,6.26-7.49s-2.6-7.45-6.26-7.45a5.6,5.6,0,0,0-4.53,2.3V5.73H86.07V25.39h3.07V18a5.54,5.54,0,0,0,4.53,2.33Zm-.9-2.74a4.66,4.66,0,0,1-3.63-1.92V10a4.56,4.56,0,0,1,3.63-1.91c2.42,0,4,2,4,4.71s-1.55,4.75-4,4.75ZM114.66,20V10.53c0-3.83-2.75-5.15-5.88-5.15a8.32,8.32,0,0,0-5.93,2.3l1.26,2.15A5.76,5.76,0,0,1,108.29,8c2,0,3.3,1,3.3,2.65V12.8A5.83,5.83,0,0,0,107,11c-2.31,0-4.91,1.35-4.91,4.62A4.7,4.7,0,0,0,107,20.32a5.93,5.93,0,0,0,4.56-1.89V20Zm-6.43-1.76c-1.73,0-3-1-3-2.54s1.28-2.56,3-2.56a4.12,4.12,0,0,1,3.36,1.47v2.15a4.13,4.13,0,0,1-3.36,1.48ZM118,25.53a8.52,8.52,0,0,0,1.73.21,4.74,4.74,0,0,0,4.85-3.21l6.81-16.8h-3.3L124,16.4,119.86,5.73h-3.27l5.79,14.41-.7,1.62a1.92,1.92,0,0,1-2,1.24,3.14,3.14,0,0,1-1.17-.24Z"/></g></g><path id="ОПЛАТА-СКИНАМИ" class="cls-1" d="M23.6,37.29a3.35,3.35,0,1,1,0-6.69,3.35,3.35,0,1,1,0,6.69Zm0-1.22a2.13,2.13,0,0,0,0-4.25,2,2,0,0,0-2,2.12A2,2,0,0,0,23.6,36.07Zm10.17,1.1H32.38V31.92H29.33v5.25H28V30.71h5.82Zm.88.12V36.07c.65,0,1-.35,1.23-2.06l.38-3.3h4.59v6.46H39.47V31.92h-2l-.25,2.19C36.94,36.79,36,37.29,34.65,37.29Zm13.5-.12H46.58l-.4-1.09H43.41L43,37.17H41.44l2.5-6.46h1.72Zm-2.34-2.31-1-2.78-1,2.78Zm5.82,2.31H50.25V31.92H48.36V30.71h5.15v1.21H51.63Zm8.79,0H58.85l-.4-1.09H55.68l-.4,1.09H53.71l2.5-6.46h1.72Zm-2.34-2.31-1-2.78-1,2.78Zm8.55,2.43a3.35,3.35,0,1,1,0-6.69,3,3,0,0,1,2.71,1.58l-1.18.58a1.78,1.78,0,0,0-1.53-.94,2.13,2.13,0,0,0,0,4.25,1.76,1.76,0,0,0,1.53-.94l1.18.57A3,3,0,0,1,66.63,37.29Zm9.07-.12H74l-2-2.59-.5.6v2H70.16V30.71h1.38v2.88l2.28-2.88h1.7l-2.57,3Zm2,0H76.33V30.71H77.7v4.17l3-4.17h1.41v6.46H80.74V32.84Zm11.56,0H87.82V34.46h-3v2.71H83.39V30.71h1.38v2.54h3V30.71h1.39Zm7.29,0H94.93l-.39-1.09H91.76l-.4,1.09H89.79l2.5-6.46H94Zm-2.34-2.31-1-2.78-1,2.78Zm10,2.31h-1.38V32.64l-1.83,4.53h-.6l-1.82-4.53v4.53H97.1V30.71H99l1.57,3.9,1.57-3.9h1.94Zm2.61,0h-1.33V30.71h1.38v4.17l3-4.17h1.42v6.46H109.8V32.84Z"/></g></g></g></g></svg>