<svg id="соц_сети_копия" data-name="соц сети копия" xmlns="http://www.w3.org/2000/svg" width="106" height="69" viewBox="0 0 106 69">
  <metadata><?xpacket begin="﻿" id="W5M0MpCehiHzreSzNTczkc9d"?>
<x:xmpmeta xmlns:x="adobe:ns:meta/" x:xmptk="Adobe XMP Core 5.6-c142 79.160924, 2017/07/13-01:06:39        ">
   <rdf:RDF xmlns:rdf="http://www.w3.org/1999/02/22-rdf-syntax-ns#">
      <rdf:Description rdf:about=""/>
   </rdf:RDF>
</x:xmpmeta>
                                                                                                    
                                                                                                    
                                                                                                    
                                                                                                    
                                                                                                    
                                                                                                    
                                                                                                    
                                                                                                    
                                                                                                    
                                                                                                    
                                                                                                    
                                                                                                    
                                                                                                    
                                                                                                    
                                                                                                    
                                                                                                    
                                                                                                    
                                                                                                    
                                                                                                    
                                                                                                    
                           
<?xpacket end="w"?></metadata>
<defs>
    <style>
      .cls-1 {
        fill: #888;
      }

      .cls-1, .cls-2 {
        fill-rule: evenodd;
      }

      .cls-2 {
        fill: #ffc600;
      }
    </style>
  </defs>
  <path id="steam" class="cls-1" d="M1411.71,1964.2a10.057,10.057,0,0,1-7.31,2.94l-9.92,7.05a7.127,7.127,0,0,1-2.47,4.84,7.764,7.764,0,0,1-10.04.27,10.922,10.922,0,0,1-3.39-5.1l-11.74-5.89a6.791,6.791,0,1,1,2.59-6.78l13.67,5.87a7.3,7.3,0,0,1,3.74-1.45c0.19,0,.45.01,0.78,0.04l6.46-9a9.6,9.6,0,0,1,3.04-7.05,10.469,10.469,0,0,1,14.59.04,9.448,9.448,0,0,1,3.01,7.09A9.6,9.6,0,0,1,1411.71,1964.2Zm-47.16-5.49a4.531,4.531,0,0,0-3.57,8.33,5.429,5.429,0,0,0,3.26.12c0.25-.05-3.93-2.97-3.73-4.28,0.64-4.16,6.23-2.12,6.23-2.17C1366.68,1959.73,1365.52,1959.13,1364.55,1958.71Zm26.28,10.84a5.519,5.519,0,0,0-3.99-1.62,4.574,4.574,0,0,0-1.21.16l2.36,0.91a4.282,4.282,0,0,1,2.47,2.34,4.084,4.084,0,0,1,.02,3.37,4.487,4.487,0,0,1-5.87,2.41c-0.32-.1-0.8-0.27-1.42-0.51s-1.09-.42-1.38-0.56a5.457,5.457,0,0,0,2.07,2.14,5.689,5.689,0,0,0,2.96.8,5.492,5.492,0,0,0,3.99-1.59,5.378,5.378,0,0,0,1.66-3.92A5.306,5.306,0,0,0,1390.83,1969.55Zm18.44-17.24a7.041,7.041,0,0,0-9.79,0,6.643,6.643,0,0,0,0,9.56,6.721,6.721,0,0,0,4.9,1.96,6.929,6.929,0,0,0,4.89-1.96A6.643,6.643,0,0,0,1409.27,1952.31Zm-4.83,10.15a5.54,5.54,0,0,1-3.94-1.58,4.841,4.841,0,0,1-1.59-3.81,5.828,5.828,0,0,1,1.59-3.84,4.865,4.865,0,0,1,3.94-1.55,5.531,5.531,0,0,1,3.9,1.55,5.787,5.787,0,0,1,1.62,3.84,5.15,5.15,0,0,1-1.62,3.81A5.431,5.431,0,0,1,1404.44,1962.46Z" transform="translate(-1356 -1912)"/>
  <path id="steam_копия" data-name="steam копия" class="cls-2" d="M1411.71,1929.2a10.057,10.057,0,0,1-7.31,2.94l-9.92,7.05a7.127,7.127,0,0,1-2.47,4.84,7.764,7.764,0,0,1-10.04.27,10.922,10.922,0,0,1-3.39-5.1l-11.74-5.89a6.791,6.791,0,1,1,2.59-6.78l13.67,5.87a7.3,7.3,0,0,1,3.74-1.45c0.19,0,.45.01,0.78,0.04l6.46-9a9.6,9.6,0,0,1,3.04-7.05,10.469,10.469,0,0,1,14.59.04,9.448,9.448,0,0,1,3.01,7.09A9.6,9.6,0,0,1,1411.71,1929.2Zm-47.16-5.49a4.531,4.531,0,0,0-3.57,8.33,5.429,5.429,0,0,0,3.26.12c0.25-.05-3.93-2.97-3.73-4.28,0.64-4.16,6.23-2.12,6.23-2.17C1366.68,1924.73,1365.52,1924.13,1364.55,1923.71Zm26.28,10.84a5.519,5.519,0,0,0-3.99-1.62,4.574,4.574,0,0,0-1.21.16l2.36,0.91a4.282,4.282,0,0,1,2.47,2.34,4.084,4.084,0,0,1,.02,3.37,4.487,4.487,0,0,1-5.87,2.41c-0.32-.1-0.8-0.27-1.42-0.51s-1.09-.42-1.38-0.56a5.457,5.457,0,0,0,2.07,2.14,5.689,5.689,0,0,0,2.96.8,5.492,5.492,0,0,0,3.99-1.59,5.378,5.378,0,0,0,1.66-3.92A5.306,5.306,0,0,0,1390.83,1934.55Zm18.44-17.24a7.041,7.041,0,0,0-9.79,0,6.643,6.643,0,0,0,0,9.56,6.721,6.721,0,0,0,4.9,1.96,6.929,6.929,0,0,0,4.89-1.96A6.643,6.643,0,0,0,1409.27,1917.31Zm-4.83,10.15a5.54,5.54,0,0,1-3.94-1.58,4.841,4.841,0,0,1-1.59-3.81,5.828,5.828,0,0,1,1.59-3.84,4.865,4.865,0,0,1,3.94-1.55,5.531,5.531,0,0,1,3.9,1.55,5.787,5.787,0,0,1,1.62,3.84,5.15,5.15,0,0,1-1.62,3.81A5.431,5.431,0,0,1,1404.44,1927.46Z" transform="translate(-1356 -1912)"/>
  <path id="vk" class="cls-1" d="M1418.43,1953.95a32.015,32.015,0,0,1,3.47-.05l2.75,0.05a1.812,1.812,0,0,1,1.8,1.13,42.045,42.045,0,0,0,5.33,9.12c1.2,1.07,1.96.92,2.3-.48,0.15,0,.22-1.72.22-5.15,0.08-2.19-.84-3.55-2.74-4.08,0.44-1.11,1.98-1.66,4.59-1.66a18.751,18.751,0,0,1,2.42.05l1.57,0.11c2.17,0,3.25.84,3.25,2.52,0,0.22-.04.73-0.11,1.55s-0.13,1.6-.17,2.31-0.05,1.49-.05,2.31a5.408,5.408,0,0,0,.33,2.04,1.748,1.748,0,0,0,.9,1.02,4.556,4.556,0,0,0,1.12-.75c0.3-.29.69-0.7,1.18-1.24a6.361,6.361,0,0,0,.95-1.23c0.15-.29.47-0.82,0.96-1.61a7.462,7.462,0,0,0,.78-1.45,12.032,12.032,0,0,1,.73-1.61l0.84-1.66a2.935,2.935,0,0,1,.73-1.08,3.576,3.576,0,0,1,1.35-.16h6.79a9.325,9.325,0,0,1,1.46.06,1.418,1.418,0,0,1,.61.48q0.8,0.915-1.34,4.08a42.247,42.247,0,0,1-4.1,5.26c-1.83,1.93-2.1,3.48-.78,4.67a43.117,43.117,0,0,1,5.83,6,2.481,2.481,0,0,1,.45,2.04,1.168,1.168,0,0,1-1.23.86l-7.24.32c-1.01.08-2.24-.51-3.71-1.77a16.351,16.351,0,0,1-2.97-3.11,1.765,1.765,0,0,0-1.57-.85,1.286,1.286,0,0,0-1.51,1.01l-0.23,2.74a1.538,1.538,0,0,1-.61,1.28,2.457,2.457,0,0,1-.96.44l-1.23.16a32.439,32.439,0,0,1-5-.27,9.079,9.079,0,0,1-3.92-1.5c-1.13-.79-2.04-1.49-2.75-2.1a38.023,38.023,0,0,1-3.03-3.06,85.361,85.361,0,0,1-8.02-12.66,11.076,11.076,0,0,1-1.07-3.54A3,3,0,0,1,1418.43,1953.95Z" transform="translate(-1356 -1912)"/>
  <path id="vk_копия" data-name="vk копия" class="cls-2" d="M1418.43,1916.95a32.015,32.015,0,0,1,3.47-.05l2.75,0.05a1.812,1.812,0,0,1,1.8,1.13,42.045,42.045,0,0,0,5.33,9.12c1.2,1.07,1.96.92,2.3-.48,0.15,0,.22-1.72.22-5.15,0.08-2.19-.84-3.55-2.74-4.08,0.44-1.11,1.98-1.66,4.59-1.66a18.751,18.751,0,0,1,2.42.05l1.57,0.11c2.17,0,3.25.84,3.25,2.52,0,0.22-.04.73-0.11,1.55s-0.13,1.6-.17,2.31-0.05,1.49-.05,2.31a5.408,5.408,0,0,0,.33,2.04,1.748,1.748,0,0,0,.9,1.02,4.556,4.556,0,0,0,1.12-.75c0.3-.29.69-0.7,1.18-1.24a6.361,6.361,0,0,0,.95-1.23c0.15-.29.47-0.82,0.96-1.61a7.462,7.462,0,0,0,.78-1.45,12.032,12.032,0,0,1,.73-1.61l0.84-1.66a2.935,2.935,0,0,1,.73-1.08,3.576,3.576,0,0,1,1.35-.16h6.79a9.325,9.325,0,0,1,1.46.06,1.418,1.418,0,0,1,.61.48q0.8,0.915-1.34,4.08a42.247,42.247,0,0,1-4.1,5.26c-1.83,1.93-2.1,3.48-.78,4.67a43.117,43.117,0,0,1,5.83,6,2.481,2.481,0,0,1,.45,2.04,1.168,1.168,0,0,1-1.23.86l-7.24.32c-1.01.08-2.24-.51-3.71-1.77a16.351,16.351,0,0,1-2.97-3.11,1.765,1.765,0,0,0-1.57-.85,1.286,1.286,0,0,0-1.51,1.01l-0.23,2.74a1.538,1.538,0,0,1-.61,1.28,2.457,2.457,0,0,1-.96.44l-1.23.16a32.439,32.439,0,0,1-5-.27,9.079,9.079,0,0,1-3.92-1.5c-1.13-.79-2.04-1.49-2.75-2.1a38.023,38.023,0,0,1-3.03-3.06,85.361,85.361,0,0,1-8.02-12.66,11.076,11.076,0,0,1-1.07-3.54A3,3,0,0,1,1418.43,1916.95Z" transform="translate(-1356 -1912)"/>
</svg>
