<svg xmlns="http://www.w3.org/2000/svg" xmlns:xlink="http://www.w3.org/1999/xlink" viewBox="0 0 106.91 34.17"><defs><style>.cls-1{fill:none;}.cls-2{clip-path:url(#clip-path);}.cls-3{fill:#00579f;}.cls-4{fill:#faa61a;}</style><clipPath id="clip-path" transform="translate(0 0)"><rect class="cls-1" width="106.91" height="34.17"/></clipPath></defs><title>Ресурс 9</title><g id="Слой_2" data-name="Слой 2"><g id="Layer_1" data-name="Layer 1"><g id="g4158"><g class="cls-2"><polygon class="cls-3" points="46.33 33.67 37.67 33.67 43.08 0.6 51.74 0.6 46.33 33.67"/><g class="cls-2"><path class="cls-3" d="M77.72,1.41A21.52,21.52,0,0,0,70,0C61.4,0,55.38,4.5,55.34,10.94c-.07,4.75,4.32,7.39,7.59,9s4.49,2.68,4.49,4.12c0,2.22-2.7,3.24-5.2,3.24a17.41,17.41,0,0,1-8.12-1.76L53,25l-1.22,7.43a26.9,26.9,0,0,0,9.66,1.76c9.09,0,15-4.44,15.08-11.3,0-3.76-2.28-6.65-7.27-9-3-1.51-4.89-2.53-4.89-4.08s1.57-2.85,5-2.85A14.85,14.85,0,0,1,75.76,8.2l.79.35Z" transform="translate(0 0)"/><path class="cls-3" d="M89.23,22c.72-1.9,3.46-9.26,3.46-9.26s.71-1.93,1.14-3.16l.61,2.85s1.64,7.91,2,9.57ZM99.92.6h-6.7c-2.06,0-3.63.6-4.52,2.74L75.83,33.67h9.09l1.82-5H97.86c.25,1.16,1,5,1,5h8Z" transform="translate(0 0)"/><path class="cls-3" d="M30.43.6,22,23.15,21,18.58c-1.57-5.28-6.49-11-12-13.86l7.77,28.92H26L39.59.6Z" transform="translate(0 0)"/><path class="cls-4" d="M14.08.6H.14L0,1.27C10.87,4,18.07,10.63,21,18.58L18,3.38C17.5,1.27,16,.67,14.08.6" transform="translate(0 0)"/></g></g></g></g></g></svg>