<svg xmlns="http://www.w3.org/2000/svg" xmlns:xlink="http://www.w3.org/1999/xlink" viewBox="0 0 149.74 41.06"><defs><style>.cls-1{fill:none;}.cls-2{clip-path:url(#clip-path);}.cls-3{fill:#036cb5;}</style><clipPath id="clip-path" transform="translate(0 0)"><rect class="cls-1" width="149.74" height="41.06"/></clipPath></defs><title>Ресурс 10</title><g id="Слой_2" data-name="Слой 2"><g id="Layer_1" data-name="Layer 1"><g id="g4473"><g class="cls-2"><g class="cls-2"><path class="cls-3" d="M20.75,0a21.12,21.12,0,0,1,9.13,2.08c.43.19.87.43,1.3.67l-1.9,1.68L26.42,1.49,21.51,5.81l-2.9-3.1-9,8,5.79,6.31-2.26,2,5.72,6.32-2.26,2,8.17,9,4.84-4.39,4.2,4.7A23.08,23.08,0,0,1,31,38.4a20.9,20.9,0,0,1-10.24,2.66A20.68,20.68,0,0,1,0,20.51,20.65,20.65,0,0,1,20.75,0M16.94,19.26l5-4.39,4.44,4.9-5,4.39Zm3.53,8.47,4.92-4.43,4.49,4.9-5,4.39ZM13.41,10.9l5-4.39,4.44,4.9-5,4.4ZM22.5,8.55l3.69-3.29L29.52,8.9l-3.69,3.34Zm6.58,15.1,3.69-3.29L36.11,24l-3.7,3.3Zm3.26,7.41L36,27.77l3.33,3.65-3.69,3.33Zm1.5-16.94,2.46-2.2,2.22,2.44-2.45,2.19ZM30.67,6.86l2.46-2.23L35.35,7.1,32.89,9.3ZM37,21.38l2.46-2.2,2.26,2.43-2.5,2.2ZM25.91,15.92l3.69-3.29,3.33,3.65-3.69,3.29Z" transform="translate(0 0)"/><polygon class="cls-3" points="59.12 10.44 56.84 22.34 56.68 22.34 53.57 10.44 51.58 10.44 48.67 22.34 48.51 22.34 46 10.44 43.49 10.44 47.12 26.39 49.54 26.39 52.49 15.16 52.65 15.16 55.7 26.39 58.11 26.39 61.74 10.44 59.12 10.44"/><path class="cls-3" d="M64.92,19.6h5.13c-.11-2.37-1.26-3.31-2.47-3.31s-2.41,1.06-2.66,3.31m6.92,4.23v1.71a7.92,7.92,0,0,1-4,1c-3.76,0-5.31-2.34-5.31-5.89s1.72-5.9,5.08-5.9c2.8,0,4.52,1.83,4.52,5.49v.83H64.88c0,2.7,1.09,3.9,3.4,3.9a6.83,6.83,0,0,0,3.56-1.17" transform="translate(0 0)"/><path class="cls-3" d="M77.38,24.77a5.27,5.27,0,0,0,2.06.36c1.66,0,2.91-1,2.91-4.68,0-2.86-1-3.78-2.53-3.78a4.73,4.73,0,0,0-2.44.74Zm0-9a6.69,6.69,0,0,1,3-.84c2.77,0,4.27,1.94,4.27,5.54,0,4.21-2,6.25-5.26,6.25a10.32,10.32,0,0,1-4.36-1.1V9.9l2.33-.56Z" transform="translate(0 0)"/><polygon class="cls-3" points="95.27 26.38 93.84 26.38 89.27 15.08 89.07 15.08 89.07 26.38 87.06 26.38 87.06 10.43 89.77 10.43 94.78 23 94.89 23 99.68 10.43 102.46 10.43 102.46 26.38 100.04 26.38 100.04 14.81 99.84 14.81 95.27 26.38"/><path class="cls-3" d="M112.34,20.68c0-3-1.23-4.32-2.76-4.32s-2.75,1.28-2.75,4.32S108,25,109.58,25s2.76-1.24,2.76-4.32m-7.86,0c0-3.94,2.15-5.9,5.1-5.9s5.11,2,5.11,5.9-2,5.89-5.11,5.89-5.1-2.05-5.1-5.89" transform="translate(0 0)"/><path class="cls-3" d="M116.46,16.45a11.37,11.37,0,0,1,5.71-1.67c2.68,0,3.69,1.06,3.69,3.38V26.3h-2.33V18.67c0-1.77-.87-2.09-2-2.09a6.18,6.18,0,0,0-2.73.81V26.3h-2.33Z" transform="translate(0 0)"/><path class="cls-3" d="M130.79,19.6h5.12c-.11-2.37-1.25-3.31-2.46-3.31s-2.41,1.06-2.66,3.31m6.91,4.23v1.71a7.89,7.89,0,0,1-4,1c-3.76,0-5.3-2.34-5.3-5.89s1.72-5.9,5.08-5.9c2.8,0,4.52,1.83,4.52,5.49v.83h-7.3c0,2.7,1.1,3.9,3.41,3.9a6.8,6.8,0,0,0,3.55-1.17" transform="translate(0 0)"/><path class="cls-3" d="M147.34,14.78h2.4L145.69,26c-1.13,3.1-2.49,4.72-5.06,4.72V28.91c1.52,0,2.46-1.21,3-2.88l-4.3-11.25h2.46l2.87,8.28h.13Z" transform="translate(0 0)"/></g></g></g></g></g></svg>