<svg xmlns="http://www.w3.org/2000/svg" xmlns:xlink="http://www.w3.org/1999/xlink" viewBox="0 0 134.83 52.84"><defs><style>.cls-1{fill:none;}.cls-2{clip-path:url(#clip-path);}.cls-3{fill:#fccb06;}.cls-4{fill:#cfa705;}.cls-5{fill:red;}.cls-6{fill:#fff;}</style><clipPath id="clip-path" transform="translate(0 0)"><rect class="cls-1" width="134.83" height="52.84"/></clipPath></defs><title>Ресурс 2</title><g id="Слой_2" data-name="Слой 2"><g id="Layer_1" data-name="Layer 1"><g id="Иллюстрация_6" data-name="Иллюстрация 6"><g class="cls-2"><g class="cls-2"><path class="cls-3" d="M96.24,25.16c0-2.84.24-4.65,6.14-9.06C107.27,12.46,122.92,0,122.92,0V20.8h11.91V50.73H100A3.73,3.73,0,0,1,96.24,47V25.16" transform="translate(0 0)"/><polyline class="cls-4" points="122.92 20.8 122.92 32.85 101.05 47.75 128.7 38.75 128.7 20.8 122.92 20.8"/><path class="cls-5" d="M11,35.69H9.34c-2.57,0-5.06-1.88-5.06-6.56,0-4.88,2.33-6.87,4.71-6.87h2Zm2.57-15.93H9.1c-4.35,0-8,3.32-8,9.76,0,3.86,1.79,6.71,5,8.12L.08,48.41c-.2.35,0,.62.31.62H3.15a.45.45,0,0,0,.47-.27L9,38.18h2V48.76a.29.29,0,0,0,.27.27h2.41c.24,0,.32-.12.32-.31V20.15c0-.27-.16-.39-.43-.39" transform="translate(0 0)"/><path class="cls-6" d="M51.54,37.47c-.89,0-2.29.15-2.29.15s0-.58.07-1.21c.35-3.32,1.17-5,2.53-5s2,1.71,2.22,4.72c0,.62,0,1.33,0,1.33ZM52,29c-4.2,0-6.07,5.31-6.07,11.08s2.64,9.41,6.54,9.41a8.73,8.73,0,0,0,4.43-1.29.28.28,0,0,0,.16-.35l-.32-1.33c0-.16-.11-.23-.31-.23a11.7,11.7,0,0,1-2.88.42c-3,0-4.39-2.61-4.39-6v-.93s1.52.18,2.41.18h5.68V38.29c0-6-2.14-9.29-5.25-9.29M39.83,46.56H34.19c2-3.4,2.76-7.22,3-11.9.08-1,.12-2.07.12-2.74h2.49V46.56Zm4.2,0h-.46c-.59,0-.74-.23-.74-.7V29.74c0-.2-.08-.27-.24-.27H34.81a.27.27,0,0,0-.31.27v1.4c0,4.73-.27,10.81-2.76,15.42h-.86a.27.27,0,0,0-.31.31v5.7a.27.27,0,0,0,.27.27h1.87a.55.55,0,0,0,.59-.58V49h8.32v3.55a.27.27,0,0,0,.27.27h2c.23,0,.46-.19.46-.58V46.87a.28.28,0,0,0-.31-.31m22.29-8.27L71,29.74c.08-.12,0-.27-.12-.27H68.58a1,1,0,0,0-1.13.74L64,37.51a1.91,1.91,0,0,1-.58.82V29.74c0-.16-.08-.27-.24-.27H60.6a.26.26,0,0,0-.23.27v19c0,.12.08.28.23.28h2.53c.16,0,.24-.12.24-.28V39a.91.91,0,0,1,.27.35l4.43,9.13a1.05,1.05,0,0,0,1.09.59h2.49c.16,0,.2-.16.12-.28L66.32,38.29m16.91,9.48-.31-1.33c0-.11-.08-.15-.19-.15a11.66,11.66,0,0,1-2.77.42c-2.95,0-4.39-2.84-4.39-7.37,0-4,1.2-7.92,3.23-7.92a3.17,3.17,0,0,1,2.25,1.13.41.41,0,0,0,.31.16c.12,0,.24-.08.35-.28l1.06-1.71a.72.72,0,0,0,.11-.36c0-.15-.15-.27-.39-.39a7.42,7.42,0,0,0-3.62-1c-3.65,0-6.49,4.37-6.49,11.2,0,5.89,2.72,9.29,6.61,9.29a8,8,0,0,0,4.09-1.29.4.4,0,0,0,.15-.43M28.16,29.47H25.75a.29.29,0,0,0-.31.27v7.45H21V29.74c0-.2-.07-.27-.27-.27H18.28c-.2,0-.31.11-.31.27v19c0,.19.08.31.27.31h2.45a.27.27,0,0,0,.27-.31V39.65h4.48v9.06a.28.28,0,0,0,.31.31h2.41a.28.28,0,0,0,.27-.31v-19a.26.26,0,0,0-.27-.27m84.77-9.3c1.28-1.52,3.15-2.06,4.17-1.2s.82,2.79-.46,4.32-3.14,2.06-4.17,1.2-.82-2.79.46-4.32" transform="translate(0 0)"/></g></g></g></g></g></svg>