<svg xmlns="http://www.w3.org/2000/svg" xmlns:xlink="http://www.w3.org/1999/xlink" viewBox="0 0 345.99 64.36"><defs><style>.cls-1{fill:#fff;}.cls-2{fill:url(#Безымянный_градиент_23);}</style><linearGradient id="Безымянный_градиент_23" x1="112.94" y1="-7.4" x2="153.41" y2="62.69" gradientUnits="userSpaceOnUse"><stop offset="0.16" stop-color="#f9d577"/><stop offset="0.21" stop-color="#f7c483"/><stop offset="0.29" stop-color="#f4b190"/><stop offset="0.37" stop-color="#f3a698"/><stop offset="0.45" stop-color="#f2a29b"/><stop offset="0.76" stop-color="#ffa261"/><stop offset="1" stop-color="#c147af"/></linearGradient></defs><title>Ресурс 1</title><g id="Слой_2" data-name="Слой 2"><g id="Слой_1-2" data-name="Слой 1"><path class="cls-1" d="M8.27,40.46V25.29l17.59.23L34,25.29a3.37,3.37,0,0,0-.08-2.22,4,4,0,0,0-1.56-1.66A10.36,10.36,0,0,0,26.63,20H7.68a10.15,10.15,0,0,0-3,.42,9.09,9.09,0,0,0-2.43,1.14A5.68,5.68,0,0,0,.61,23.23,3.91,3.91,0,0,0,0,25.36V40.87a4.24,4.24,0,0,0,.61,2.27,5.77,5.77,0,0,0,1.67,1.71A8.45,8.45,0,0,0,4.71,46a10.72,10.72,0,0,0,2.92.39h19a12.88,12.88,0,0,0,3-.34,7.8,7.8,0,0,0,2.49-1,5.06,5.06,0,0,0,1.25-1.14,4.3,4.3,0,0,0,.41-.6A3.82,3.82,0,0,0,34,40.46ZM72.21,25.52A4.5,4.5,0,0,0,70,21.28,11.74,11.74,0,0,0,64.07,20H45.42a12.56,12.56,0,0,0-3,.35,7.37,7.37,0,0,0-2.49,1.07,5.58,5.58,0,0,0-1.71,1.9A5.51,5.51,0,0,0,37.59,26v4.37a4.46,4.46,0,0,0,.64,2.44,5.67,5.67,0,0,0,1.71,1.74,8,8,0,0,0,2.49,1,12.33,12.33,0,0,0,2.94.34H63.66v5H37.59a4,4,0,0,0,.69,2.36A6.06,6.06,0,0,0,40.12,45a8.63,8.63,0,0,0,2.62,1.06,13.5,13.5,0,0,0,3,.34H64a11.73,11.73,0,0,0,6-1.34,4.52,4.52,0,0,0,2.28-4.19V35.62a4,4,0,0,0-.72-2.35,5.52,5.52,0,0,0-1.84-1.65A8.71,8.71,0,0,0,67,30.7a15.16,15.16,0,0,0-3-.29H46.35V25.52Zm161.57-.23a8.49,8.49,0,0,0-1.14-2.22,6.56,6.56,0,0,0-1.57-1.66A10.33,10.33,0,0,0,225.33,20H206.39a10.15,10.15,0,0,0-3,.42A9,9,0,0,0,201,21.55a5.65,5.65,0,0,0-1.66,1.68,3.92,3.92,0,0,0-.62,2.13V40.87a4.25,4.25,0,0,0,.62,2.27A5.74,5.74,0,0,0,201,44.85a8.39,8.39,0,0,0,2.44,1.1,10.65,10.65,0,0,0,2.91.39h19a13,13,0,0,0,3-.34,7.83,7.83,0,0,0,2.48-1,5.3,5.3,0,0,0,1.26-1.14,5.68,5.68,0,0,0,.4-.6,18.81,18.81,0,0,0,1.28-2.78h-27V25.29Zm7.3-4.95a7.4,7.4,0,0,0-2.48,1.05,5,5,0,0,0-2.31,4.39V46.34h.51A12.61,12.61,0,0,0,240,46a8.83,8.83,0,0,0,2.58-1.08,4.65,4.65,0,0,0,1.74-1.79,6.38,6.38,0,0,0,.57-3V36h17.31V46.34h8.65V20H244A12.35,12.35,0,0,0,241.08,20.34Zm3.77,5.18h17.31v4.89H244.85Zm63.65,0a4.5,4.5,0,0,0-2.23-4.24A11.72,11.72,0,0,0,300.36,20H281.72a12.59,12.59,0,0,0-3,.35,7.32,7.32,0,0,0-2.48,1.07,5.51,5.51,0,0,0-1.72,1.9,5.62,5.62,0,0,0-.64,2.73v4.37a4.55,4.55,0,0,0,.64,2.44,5.6,5.6,0,0,0,1.72,1.74,7.93,7.93,0,0,0,2.48,1,12.35,12.35,0,0,0,2.95.34H300v5H273.88a4,4,0,0,0,.69,2.36A6,6,0,0,0,276.42,45,8.67,8.67,0,0,0,279,46.06a13.5,13.5,0,0,0,3,.34h18.24a11.69,11.69,0,0,0,6-1.34,4.52,4.52,0,0,0,2.28-4.19V35.62a4,4,0,0,0-.72-2.35,5.42,5.42,0,0,0-1.84-1.65,8.65,8.65,0,0,0-2.61-.92,15.23,15.23,0,0,0-3-.29H282.64V25.52ZM320.13,36h16.33V30.41H320.13V25.52H346a4.64,4.64,0,0,0-2.13-4.11A10.07,10.07,0,0,0,338.2,20h-19a9.94,9.94,0,0,0-2.91.42,9,9,0,0,0-2.44,1.14,5.59,5.59,0,0,0-1.66,1.7,4.17,4.17,0,0,0-.62,2.21V40.87a4.25,4.25,0,0,0,.62,2.27,5.74,5.74,0,0,0,1.66,1.71,8.39,8.39,0,0,0,2.44,1.1,10.88,10.88,0,0,0,3,.39H338.2a13.94,13.94,0,0,0,3.05-.31,8,8,0,0,0,2.48-1,4.66,4.66,0,0,0,1.67-1.69,4.84,4.84,0,0,0,.59-2.44H320.13Z"/><path class="cls-2" d="M188.77,34.78a5.33,5.33,0,0,0-4.56-4.2c-4.38-.91-8.77-1.75-13.14-2.68a2.75,2.75,0,0,0-2.51.25c-1.74-.5-3.76-.19-4.53-2.36.42-.05.89,0,1.16-.5a2.94,2.94,0,0,0-.12-1.59,3.56,3.56,0,0,0-2-.3c-1.81-.1-3.63-.18-4.84-1.89a3.54,3.54,0,0,1,.37-1.84,2.83,2.83,0,0,0-.47-3.69c-1.17-.07-2.14,1-3.26.42-.88,1.11-1,1.49-.83,3.56-.59.68-1.69.33-2.15,1.14l-11-2.44a4.9,4.9,0,0,0-2.55-.11,1,1,0,0,1-.89-.24c-.15-.19,0-.65-.49-1-4.09-.9-8.35-1.8-12.6-2.76-5.2-1.18-10.38-2.44-15.59-3.59-2-.44-4-1.12-6-.7C100.48,6.92,99,3.16,96.33,0a5.85,5.85,0,0,1-2.24,1.13c-.7.28-1.2,1.05-1.79,1.61-.75,3.38-.39,6.85-.92,10.34-2.79-.2-5.16-1.55-7.75-2s-5.24-1.24-7.88-1.45c-2,1.86-2,4-1.1,6.33a113.82,113.82,0,0,0,13.83,2c1.43.09,3,0,4.22,1.22a1.76,1.76,0,0,0,1.86.25,5.8,5.8,0,0,1,3.81.29,3.52,3.52,0,0,1,.48,1.66c.23,1.05.67,1.8,1.91,1.77a.83.83,0,0,1,.86.72c-.17.52-1,1-.14,1.88,3.23.5,6.63,1,10,1.53,4.21.63,8.42,1.23,12.62,1.86,3.09.45,6.18.88,9.26,1.41,1.14.19,2.21-.27,3.36-.24.51,1.78-.23,3.46-.16,5.17a29.31,29.31,0,0,1-.12,5.37,1.79,1.79,0,0,1,.84,1.77c0,1.3-.24,2.57-.32,3.86a55.09,55.09,0,0,1-1.1,8l-1.32,6.12a6,6,0,0,0,.9.53c2.51,1,5,2,7.56,2.87a9.4,9.4,0,0,0,4.57,0,122.61,122.61,0,0,0,2.83-19.24c1.77.17,3.39.14,4.79,1,1.14,3.72,2.28,7.37,3.37,11,.89,3,.43,3.37,4.37,2.49a8.14,8.14,0,0,0,4.15-1.73c-.11-.44-.18-.87-.31-1.27-1.66-5.24-3.29-10.49-5-15.7a3.2,3.2,0,0,1,.36-3.12c.84-.56,1.84-.72,2.39-1.67s.22-2,.73-3.13C167,33.85,166.77,36,168,37.14c.7.45,1.5.27,2.17.47a1.41,1.41,0,0,1,.22.32,4,4,0,0,0,3.86,3.13,2.12,2.12,0,0,1,1.66.89c1,1.39,1.69,3,3.41,3.71.08,0,.12.17.18.26,1.28,1.8,2.6,3.57,3.83,5.41a3.77,3.77,0,0,0,2.5,1.86c2-.83,2.52-1.48,2.53-3.61,0-1.51-.12-3-.07-4.53.08-2.31-.23-4.61.27-6.93A7.61,7.61,0,0,0,188.77,34.78ZM95.42,11.29a5.55,5.55,0,0,1,.38-5.17,1.91,1.91,0,0,1,1.67.47c.79,1.79,1.58,3.61,2.44,5.59A25.86,25.86,0,0,1,95.42,11.29Zm57.16,31.3-.61.9a.18.18,0,0,1-.26,0l-.45-.4a.16.16,0,0,1-.06-.13V39.38a.18.18,0,0,1,.24-.17l1.31.52a.17.17,0,0,1,.11.18l-.25,2.6A.11.11,0,0,1,152.58,42.59Z"/></g></g></svg>