<svg xmlns="http://www.w3.org/2000/svg" xmlns:xlink="http://www.w3.org/1999/xlink" width="38" height="34" viewBox="0 0 38 34">
  <metadata><?xpacket begin="﻿" id="W5M0MpCehiHzreSzNTczkc9d"?>
<x:xmpmeta xmlns:x="adobe:ns:meta/" x:xmptk="Adobe XMP Core 5.6-c142 79.160924, 2017/07/13-01:06:39        ">
   <rdf:RDF xmlns:rdf="http://www.w3.org/1999/02/22-rdf-syntax-ns#">
      <rdf:Description rdf:about=""/>
   </rdf:RDF>
</x:xmpmeta>
                                                                                                    
                                                                                                    
                                                                                                    
                                                                                                    
                                                                                                    
                                                                                                    
                                                                                                    
                                                                                                    
                                                                                                    
                                                                                                    
                                                                                                    
                                                                                                    
                                                                                                    
                                                                                                    
                                                                                                    
                                                                                                    
                                                                                                    
                                                                                                    
                                                                                                    
                                                                                                    
                           
<?xpacket end="w"?></metadata>
<defs>
    <style>
      .cls-1 {
        fill: #fff;
        fill-rule: evenodd;
        filter: url(#filter);
      }
    </style>
    <filter id="filter" x="8913" y="431" width="39" height="29" filterUnits="userSpaceOnUse">
      <feOffset result="offset" dy="2" in="SourceAlpha"/>
      <feGaussianBlur result="blur" stdDeviation="2.236"/>
      <feFlood result="flood" flood-color="#050b16"/>
      <feComposite result="composite" operator="in" in2="blur"/>
      <feBlend result="blend" in="SourceGraphic"/>
    </filter>
  </defs>
  <path id="_2_2" data-name="2 2" class="cls-1" d="M8946.42,440.861l-0.04.413-0.06.478-0.06.479-1.04,9.014a1.462,1.462,0,0,1-.33.788,1.514,1.514,0,0,1-.82.519,1.373,1.373,0,0,1-.37.054,1.554,1.554,0,0,1-.18-0.012l-11.06-1.251-2.32-.262h13.09a1.11,1.11,0,0,0,1.07-1.146V438.891l0.8,0.091a1.522,1.522,0,0,1,1.03.57,1.477,1.477,0,0,1,.28.626,1.383,1.383,0,0,1,.03.5Zm-5.23,8.626h-16.78l0.36-.033,0.06,0,0.58-.054,1.08-.1,0.04-.005,2.32-.213,0.8-.073,5.23-.481,5.31-.486a1.1,1.1,0,0,0,.96-1.236l-0.62-6.579-0.04-.5-0.03-.324-0.02-.178-0.03-.31-0.04-.385-0.01-.105-0.03-.383-0.05-.49-0.07-.8-0.05-.481v-0.047l-0.04-.434h1.07a1.529,1.529,0,0,1,1.53,1.532v10.639A1.529,1.529,0,0,1,8941.19,449.487Zm-3.12-2.837-9.54.878-3.08.281-0.82.075-0.51.047-0.49.045-0.22.018-0.12.012-0.16.014-0.21.021-0.48.045-0.16.014-1.03.094-0.4.035-1.19.11a1.313,1.313,0,0,1-.14.007c-0.04,0-.09-0.009-0.13-0.012a1.52,1.52,0,0,1-1.4-1.381L8917,436.36a1.529,1.529,0,0,1,1.38-1.665l18.41-1.69a1.534,1.534,0,0,1,1.67,1.385l0.04,0.394,0.04,0.434v0.047l0.05,0.481,0.07,0.731,0.04,0.489,0.04,0.384,0.01,0.106,0.03,0.382,0.03,0.249,0.02,0.241,0.02,0.261,0.05,0.5,0.55,5.893A1.528,1.528,0,0,1,8938.07,446.65Z" transform="translate(-8913.5 -428.5)"/>
</svg>
